<svg width="15" height="24" viewBox="0 0 15 24" fill="none" xmlns="http://www.w3.org/2000/svg">
<path d="M0.00251198 6.19278C0.00167561 6.17503 -8.10623e-05 6.15728 2.86102e-06 6.13952C2.86102e-06 6.11218 0.00200939 6.08515 0.0041008 6.05813C0.00493717 6.04695 0.00493622 6.0357 0.00602341 6.02452C0.00870037 5.999 0.013216 5.97396 0.0175657 5.94883C0.019824 5.93568 0.0213289 5.92252 0.0240049 5.90952C0.0285215 5.88804 0.034627 5.86712 0.0403976 5.84604C0.0448303 5.82939 0.0487614 5.81259 0.0539465 5.79603C0.0592995 5.77938 0.0660744 5.76322 0.0720968 5.74681C0.0797071 5.72644 0.0868158 5.70591 0.0955973 5.68586C0.10095 5.67342 0.107641 5.66161 0.113412 5.6494C0.124536 5.62642 0.135325 5.60336 0.147954 5.58093C0.153809 5.57054 0.160749 5.5608 0.166939 5.55049C0.180822 5.52751 0.194539 5.50445 0.210262 5.48217C0.222305 5.46505 0.235938 5.44904 0.248818 5.43256C0.260025 5.41829 0.270229 5.40363 0.282189 5.38976C0.308702 5.35885 0.336969 5.32937 0.366828 5.30107L0.367331 5.30052L5.59314 0.348211C6.08299 -0.11607 6.87737 -0.11607 7.3673 0.348211C7.85724 0.812413 7.85724 1.56519 7.3673 2.02947L4.42918 4.81373C9.42984 5.27801 13.7453 8.7858 14.7749 13.691C15.1652 15.549 15.0465 17.4709 14.4299 19.2731C14.4206 19.3007 14.4119 19.3286 14.4022 19.3561C13.8362 20.968 12.8875 22.4353 11.6291 23.6453C11.5785 23.6935 11.5235 23.7375 11.4649 23.7768C11.2191 23.9444 10.9175 24.0218 10.616 23.9947C10.329 23.9692 10.06 23.8503 9.85488 23.6583C9.36118 23.1976 9.35499 22.4449 9.84116 21.9771C10.1399 21.6892 10.4173 21.382 10.6713 21.0579C12.2136 19.093 12.8254 16.5914 12.3139 14.1549C11.501 10.282 8.07561 7.51549 4.11939 7.17476L7.36739 10.2527C7.85732 10.717 7.85732 11.4697 7.36739 11.934C7.25102 12.0446 7.11274 12.1323 6.9605 12.192C6.80826 12.2518 6.64505 12.2825 6.48026 12.2823C6.15919 12.2823 5.83811 12.1662 5.59322 11.934L0.373519 6.98756L0.367915 6.98217L0.367331 6.9817L0.364319 6.97853C0.33605 6.95166 0.309203 6.92352 0.283778 6.89412C0.276418 6.88572 0.270228 6.87676 0.263204 6.8682C0.245054 6.84609 0.227073 6.8239 0.210596 6.80052C0.200978 6.78689 0.192782 6.7727 0.183834 6.75875C0.171623 6.73973 0.159078 6.72102 0.147954 6.70129C0.1375 6.68274 0.128551 6.66364 0.119267 6.64478C0.111321 6.62877 0.102958 6.61316 0.0957642 6.59675C0.0850592 6.57234 0.0762777 6.54745 0.0673285 6.52257C0.0630636 6.51068 0.0581284 6.49919 0.0542812 6.48706C0.0435762 6.45369 0.0349617 6.41993 0.0274343 6.38601C0.0264301 6.38165 0.0249252 6.37753 0.0240049 6.37309L0.023838 6.37206C0.0157251 6.33307 0.00953579 6.29383 0.00560474 6.25444C0.00351429 6.23368 0.00351524 6.21323 0.00251198 6.19278Z" fill="#C6CAD2"/>
</svg>
