<svg width="14" height="14" viewBox="0 0 14 14" fill="none" xmlns="http://www.w3.org/2000/svg">
<g opacity="0.5">
<path d="M2.5 0H1.5C0.671573 0 0 0.671573 0 1.5V12.5C0 13.3284 0.671573 14 1.5 14H2.5C3.32843 14 4 13.3284 4 12.5V1.5C4 0.671573 3.32843 0 2.5 0Z" fill="#8D96A5"/>
<path d="M12.4199 0C12.0233 0.00118043 11.6415 0.151044 11.3499 0.42L5.52992 5.795C5.36291 5.94816 5.22956 6.13437 5.13833 6.34181C5.04711 6.54925 5 6.77339 5 7C5 7.22661 5.04711 7.45075 5.13833 7.65819C5.22956 7.86562 5.36291 8.05184 5.52992 8.205L11.3499 13.58C11.5756 13.7877 11.8568 13.9252 12.1593 13.9758C12.4618 14.0264 12.7725 13.9879 13.0535 13.8649C13.3345 13.7419 13.5736 13.5398 13.7416 13.2832C13.9097 13.0266 13.9994 12.7267 13.9999 12.42V1.58C13.9986 1.16136 13.8317 0.76025 13.5357 0.464228C13.2397 0.168206 12.8386 0.00131855 12.4199 0Z" fill="#8D96A5"/>
</g>
</svg>
