<svg width="25" height="24" viewBox="0 0 25 24" fill="none" xmlns="http://www.w3.org/2000/svg">
<path d="M20.7332 23.9999H5.10582C3.9961 23.9984 2.93226 23.5569 2.14757 22.7722C1.36289 21.9875 0.921399 20.9236 0.919922 19.8138V6.41847C0.921399 5.30871 1.36289 4.24483 2.14757 3.46012C2.93226 2.6754 3.9961 2.2339 5.10582 2.23242H20.7332C21.8429 2.2339 22.9067 2.6754 23.6914 3.46012C24.4761 4.24483 24.9176 5.30871 24.9191 6.41847V19.8138C24.9176 20.9236 24.4761 21.9875 23.6914 22.7722C22.9067 23.5569 21.8429 23.9984 20.7332 23.9999ZM5.10582 3.90684C4.43999 3.90773 3.80169 4.17263 3.33087 4.64346C2.86006 5.11429 2.59517 5.75262 2.59428 6.41847V19.8138C2.59517 20.4797 2.86006 21.118 3.33087 21.5888C3.80169 22.0597 4.43999 22.3246 5.10582 22.3254H20.7332C21.399 22.3246 22.0373 22.0597 22.5081 21.5888C22.9789 21.118 23.2438 20.4797 23.2447 19.8138V6.41847C23.2438 5.75262 22.9789 5.11429 22.5081 4.64346C22.0373 4.17263 21.399 3.90773 20.7332 3.90684H5.10582Z" fill="#D8E6FD"/>
<path d="M24.0819 9.48824H1.7571C1.53507 9.48824 1.32213 9.40003 1.16513 9.24302C1.00812 9.08602 0.919922 8.87307 0.919922 8.65103V6.41847C0.921399 5.30871 1.36289 4.24483 2.14757 3.46012C2.93226 2.6754 3.9961 2.2339 5.10582 2.23242H20.7332C21.8429 2.2339 22.9067 2.6754 23.6914 3.46012C24.4761 4.24483 24.9176 5.30871 24.9191 6.41847V8.65103C24.9191 8.87307 24.8309 9.08602 24.6739 9.24302C24.5169 9.40003 24.3039 9.48824 24.0819 9.48824ZM2.59428 7.81382H23.2447V6.41847C23.2438 5.75262 22.9789 5.11429 22.5081 4.64346C22.0373 4.17263 21.399 3.90773 20.7332 3.90684H5.10582C4.43999 3.90773 3.80169 4.17263 3.33087 4.64346C2.86006 5.11429 2.59517 5.75262 2.59428 6.41847V7.81382Z" fill="#D8E6FD"/>
<path d="M17.3843 6.13954C17.1623 6.13954 16.9493 6.05133 16.7923 5.89432C16.6353 5.73732 16.5471 5.52437 16.5471 5.30233V0.837209C16.5471 0.615168 16.6353 0.40222 16.7923 0.245213C16.9493 0.0882058 17.1623 0 17.3843 0C17.6063 0 17.8193 0.0882058 17.9763 0.245213C18.1333 0.40222 18.2215 0.615168 18.2215 0.837209V5.30233C18.2215 5.52437 18.1333 5.73732 17.9763 5.89432C17.8193 6.05133 17.6063 6.13954 17.3843 6.13954ZM8.4544 6.13954C8.23236 6.13954 8.01942 6.05133 7.86242 5.89432C7.70542 5.73732 7.61722 5.52437 7.61722 5.30233V0.837209C7.61722 0.615168 7.70542 0.40222 7.86242 0.245213C8.01942 0.0882058 8.23236 0 8.4544 0C8.67643 0 8.88937 0.0882058 9.04637 0.245213C9.20337 0.40222 9.29158 0.615168 9.29158 0.837209V5.30233C9.29158 5.52437 9.20337 5.73732 9.04637 5.89432C8.88937 6.05133 8.67643 6.13954 8.4544 6.13954ZM1.75696 8.65116V18.6977C1.75696 19.8819 2.22737 21.0176 3.06471 21.855C3.90206 22.6924 5.03774 23.1628 6.22192 23.1628H19.6168C20.801 23.1628 21.9367 22.6924 22.774 21.855C23.6113 21.0176 24.0818 19.8819 24.0818 18.6977V8.65116H1.75696ZM6.22192 18.6977C6.00115 18.6977 5.78533 18.6322 5.60177 18.5095C5.4182 18.3869 5.27513 18.2126 5.19065 18.0086C5.10616 17.8046 5.08406 17.5802 5.12713 17.3636C5.1702 17.1471 5.27651 16.9482 5.43262 16.7921C5.58873 16.636 5.78762 16.5296 6.00415 16.4866C6.22068 16.4435 6.44512 16.4656 6.64908 16.5501C6.85305 16.6346 7.02738 16.7777 7.15004 16.9612C7.27269 17.1448 7.33816 17.3606 7.33816 17.5814C7.33816 17.8775 7.22055 18.1614 7.01122 18.3707C6.80188 18.5801 6.51796 18.6977 6.22192 18.6977ZM6.22192 14.2326C6.00115 14.2326 5.78533 14.1671 5.60177 14.0444C5.4182 13.9218 5.27513 13.7474 5.19065 13.5435C5.10616 13.3395 5.08406 13.115 5.12713 12.8985C5.1702 12.682 5.27651 12.4831 5.43262 12.327C5.58873 12.1708 5.78762 12.0645 6.00415 12.0214C6.22068 11.9784 6.44512 12.0005 6.64908 12.085C6.85305 12.1695 7.02738 12.3125 7.15004 12.4961C7.27269 12.6797 7.33816 12.8955 7.33816 13.1163C7.33816 13.4123 7.22055 13.6963 7.01122 13.9056C6.80188 14.115 6.51796 14.2326 6.22192 14.2326ZM10.6869 18.6977C10.4661 18.6977 10.2503 18.6322 10.0667 18.5095C9.88316 18.3869 9.74009 18.2126 9.65561 18.0086C9.57112 17.8046 9.54901 17.5802 9.59208 17.3636C9.63516 17.1471 9.74147 16.9482 9.89758 16.7921C10.0537 16.636 10.2526 16.5296 10.4691 16.4866C10.6856 16.4435 10.9101 16.4656 11.114 16.5501C11.318 16.6346 11.4923 16.7777 11.615 16.9612C11.7376 17.1448 11.8031 17.3606 11.8031 17.5814C11.8031 17.8775 11.6855 18.1614 11.4762 18.3707C11.2668 18.5801 10.9829 18.6977 10.6869 18.6977ZM10.6869 14.2326C10.4661 14.2326 10.2503 14.1671 10.0667 14.0444C9.88316 13.9218 9.74009 13.7474 9.65561 13.5435C9.57112 13.3395 9.54901 13.115 9.59208 12.8985C9.63516 12.682 9.74147 12.4831 9.89758 12.327C10.0537 12.1708 10.2526 12.0645 10.4691 12.0214C10.6856 11.9784 10.9101 12.0005 11.114 12.085C11.318 12.1695 11.4923 12.3125 11.615 12.4961C11.7376 12.6797 11.8031 12.8955 11.8031 13.1163C11.8031 13.4123 11.6855 13.6963 11.4762 13.9056C11.2668 14.115 10.9829 14.2326 10.6869 14.2326ZM15.1518 18.6977C14.9311 18.6977 14.7153 18.6322 14.5317 18.5095C14.3481 18.3869 14.205 18.2126 14.1206 18.0086C14.0361 17.8046 14.014 17.5802 14.057 17.3636C14.1001 17.1471 14.2064 16.9482 14.3625 16.7921C14.5186 16.636 14.7175 16.5296 14.9341 16.4866C15.1506 16.4435 15.375 16.4656 15.579 16.5501C15.783 16.6346 15.9573 16.7777 16.08 16.9612C16.2026 17.1448 16.2681 17.3606 16.2681 17.5814C16.2681 17.8775 16.1505 18.1614 15.9411 18.3707C15.7318 18.5801 15.4479 18.6977 15.1518 18.6977ZM15.1518 14.2326C14.9311 14.2326 14.7153 14.1671 14.5317 14.0444C14.3481 13.9218 14.205 13.7474 14.1206 13.5435C14.0361 13.3395 14.014 13.115 14.057 12.8985C14.1001 12.682 14.2064 12.4831 14.3625 12.327C14.5186 12.1708 14.7175 12.0645 14.9341 12.0214C15.1506 11.9784 15.375 12.0005 15.579 12.085C15.783 12.1695 15.9573 12.3125 16.08 12.4961C16.2026 12.6797 16.2681 12.8955 16.2681 13.1163C16.2681 13.4123 16.1505 13.6963 15.9411 13.9056C15.7318 14.115 15.4479 14.2326 15.1518 14.2326ZM19.6168 18.6977C19.396 18.6977 19.1802 18.6322 18.9966 18.5095C18.8131 18.3869 18.67 18.2126 18.5855 18.0086C18.501 17.8046 18.4789 17.5802 18.522 17.3636C18.5651 17.1471 18.6714 16.9482 18.8275 16.7921C18.9836 16.636 19.1825 16.5296 19.399 16.4866C19.6156 16.4435 19.84 16.4656 20.044 16.5501C20.2479 16.6346 20.4223 16.7777 20.5449 16.9612C20.6676 17.1448 20.733 17.3606 20.733 17.5814C20.733 17.8775 20.6154 18.1614 20.4061 18.3707C20.1968 18.5801 19.9128 18.6977 19.6168 18.6977ZM19.6168 14.2326C19.396 14.2326 19.1802 14.1671 18.9966 14.0444C18.8131 13.9218 18.67 13.7474 18.5855 13.5435C18.501 13.3395 18.4789 13.115 18.522 12.8985C18.5651 12.682 18.6714 12.4831 18.8275 12.327C18.9836 12.1708 19.1825 12.0645 19.399 12.0214C19.6156 11.9784 19.84 12.0005 20.044 12.085C20.2479 12.1695 20.4223 12.3125 20.5449 12.4961C20.6676 12.6797 20.733 12.8955 20.733 13.1163C20.733 13.4123 20.6154 13.6963 20.4061 13.9056C20.1968 14.115 19.9128 14.2326 19.6168 14.2326Z" fill="#D8E6FD"/>
</svg>
