<svg width="24" height="24" viewBox="0 0 24 24" fill="none" xmlns="http://www.w3.org/2000/svg">
<path d="M20.0839 0H6.02836C4.1513 0 2.62434 1.515 2.62434 3.375V4.1295H1.88096C1.58464 4.1295 1.30045 4.24803 1.09092 4.459C0.881386 4.66998 0.763672 4.95613 0.763672 5.2545C0.763672 5.55287 0.881386 5.83902 1.09092 6.04999C1.30045 6.26097 1.58464 6.3795 1.88096 6.3795H2.62434V10.8773H1.88096C1.58464 10.8773 1.30045 10.9958 1.09092 11.2068C0.881386 11.4177 0.763672 11.7039 0.763672 12.0023C0.763672 12.3006 0.881386 12.5868 1.09092 12.7977C1.30045 13.0087 1.58464 13.1273 1.88096 13.1273H2.62434V17.625H1.88096C1.58464 17.625 1.30045 17.7435 1.09092 17.9545C0.881386 18.1655 0.763672 18.4516 0.763672 18.75C0.763672 19.0484 0.881386 19.3345 1.09092 19.5455C1.30045 19.7565 1.58464 19.875 1.88096 19.875H2.62434V20.625C2.62434 22.485 4.1513 24 6.02836 24H20.0839C21.9609 24 23.4805 22.485 23.4805 20.625V3.375C23.4805 1.515 21.9609 0 20.0839 0ZM13.0524 3.75C15.1082 3.75 16.7767 5.4375 16.7767 7.5C16.7767 9.57 15.1082 11.25 13.0524 11.25C11.004 11.25 9.32809 9.57 9.32809 7.5C9.32809 5.4375 11.004 3.75 13.0524 3.75ZM16.7767 20.25H9.32809C8.09907 20.25 7.09351 19.245 7.09351 18C7.09351 14.6925 9.76756 12 13.0524 12C16.3447 12 19.0113 14.6925 19.0113 18C19.0113 19.245 18.0132 20.25 16.7767 20.25Z" fill="#D8E6FD"/>
</svg>
