<svg width="52" height="52" viewBox="0 0 52 52" fill="none" xmlns="http://www.w3.org/2000/svg">
<g filter="url(#filter0_d_269_1870)">
<path d="M26 0C21.6488 0 17.3953 1.29028 13.7775 3.70767C10.1596 6.12506 7.33979 9.56099 5.67466 13.581C4.00953 17.6009 3.57386 22.0244 4.42273 26.292C5.27161 30.5596 7.36691 34.4796 10.4437 37.5563C13.5204 40.6331 17.4404 42.7284 21.708 43.5773C25.9756 44.4261 30.3991 43.9905 34.419 42.3253C38.439 40.6602 41.8749 37.8404 44.2923 34.2225C46.7097 30.6047 48 26.3512 48 22C47.9931 16.1673 45.6731 10.5756 41.5488 6.45125C37.4244 2.32694 31.8327 0.00688094 26 0ZM33.414 29.414C33.0389 29.7889 32.5303 29.9996 32 29.9996C31.4697 29.9996 30.9611 29.7889 30.586 29.414L24.586 23.414C24.2109 23.039 24.0001 22.5304 24 22V10C24 9.46957 24.2107 8.96086 24.5858 8.58578C24.9609 8.21071 25.4696 8 26 8C26.5304 8 27.0391 8.21071 27.4142 8.58578C27.7893 8.96086 28 9.46957 28 10V21.172L33.414 26.586C33.7889 26.9611 33.9996 27.4697 33.9996 28C33.9996 28.5303 33.7889 29.0389 33.414 29.414Z" fill="url(#paint0_linear_269_1870)"/>
<path d="M30.2325 29.7675L30.2325 29.7676C30.7013 30.2363 31.3371 30.4996 32 30.4996C32.6629 30.4996 33.2987 30.2363 33.7675 29.7676L33.7676 29.7675C34.2363 29.2987 34.4996 28.6629 34.4996 28C34.4996 27.3371 34.2363 26.7013 33.7676 26.2325L33.7676 26.2324L28.5 20.9649V10C28.5 9.33696 28.2366 8.70107 27.7678 8.23223C27.2989 7.76339 26.663 7.5 26 7.5C25.337 7.5 24.7011 7.76339 24.2322 8.23223C23.7634 8.70107 23.5 9.33696 23.5 10V22V22.0001C23.5001 22.6631 23.7636 23.2988 24.2325 23.7675C24.2325 23.7676 24.2325 23.7676 24.2325 23.7676L30.2325 29.7675ZM14.0552 4.1234C17.5908 1.76101 21.7475 0.500057 25.9997 0.5C31.6999 0.506804 37.1646 2.77419 41.1952 6.8048C45.2259 10.8355 47.4933 16.3003 47.5 22.0006C47.4999 26.2527 46.2389 30.4093 43.8766 33.9448C41.5141 37.4804 38.1563 40.2361 34.2277 41.8634C30.2991 43.4907 25.9762 43.9165 21.8056 43.0869C17.635 42.2573 13.804 40.2096 10.7972 37.2028C7.79039 34.196 5.74271 30.365 4.91313 26.1944C4.08354 22.0238 4.50932 17.7009 6.1366 13.7723C7.76388 9.84369 10.5196 6.48585 14.0552 4.1234Z" stroke="url(#paint1_linear_269_1870)"/>
<path d="M30.2325 29.7675L30.2325 29.7676C30.7013 30.2363 31.3371 30.4996 32 30.4996C32.6629 30.4996 33.2987 30.2363 33.7675 29.7676L33.7676 29.7675C34.2363 29.2987 34.4996 28.6629 34.4996 28C34.4996 27.3371 34.2363 26.7013 33.7676 26.2325L33.7676 26.2324L28.5 20.9649V10C28.5 9.33696 28.2366 8.70107 27.7678 8.23223C27.2989 7.76339 26.663 7.5 26 7.5C25.337 7.5 24.7011 7.76339 24.2322 8.23223C23.7634 8.70107 23.5 9.33696 23.5 10V22V22.0001C23.5001 22.6631 23.7636 23.2988 24.2325 23.7675C24.2325 23.7676 24.2325 23.7676 24.2325 23.7676L30.2325 29.7675ZM14.0552 4.1234C17.5908 1.76101 21.7475 0.500057 25.9997 0.5C31.6999 0.506804 37.1646 2.77419 41.1952 6.8048C45.2259 10.8355 47.4933 16.3003 47.5 22.0006C47.4999 26.2527 46.2389 30.4093 43.8766 33.9448C41.5141 37.4804 38.1563 40.2361 34.2277 41.8634C30.2991 43.4907 25.9762 43.9165 21.8056 43.0869C17.635 42.2573 13.804 40.2096 10.7972 37.2028C7.79039 34.196 5.74271 30.365 4.91313 26.1944C4.08354 22.0238 4.50932 17.7009 6.1366 13.7723C7.76388 9.84369 10.5196 6.48585 14.0552 4.1234Z" stroke="url(#paint2_linear_269_1870)" stroke-opacity="0.2"/>
</g>
<defs>
<filter id="filter0_d_269_1870" x="0" y="0" width="52" height="52" filterUnits="userSpaceOnUse" color-interpolation-filters="sRGB">
<feFlood flood-opacity="0" result="BackgroundImageFix"/>
<feColorMatrix in="SourceAlpha" type="matrix" values="0 0 0 0 0 0 0 0 0 0 0 0 0 0 0 0 0 0 127 0" result="hardAlpha"/>
<feOffset dy="4"/>
<feGaussianBlur stdDeviation="2"/>
<feComposite in2="hardAlpha" operator="out"/>
<feColorMatrix type="matrix" values="0 0 0 0 0.992157 0 0 0 0 0.729412 0 0 0 0 0.411765 0 0 0 0.33 0"/>
<feBlend mode="normal" in2="BackgroundImageFix" result="effect1_dropShadow_269_1870"/>
<feBlend mode="normal" in="SourceGraphic" in2="effect1_dropShadow_269_1870" result="shape"/>
</filter>
<linearGradient id="paint0_linear_269_1870" x1="15.55" y1="1.65" x2="37.55" y2="41.8" gradientUnits="userSpaceOnUse">
<stop stop-color="#FBD4A4"/>
<stop offset="1" stop-color="#FEAA46"/>
</linearGradient>
<linearGradient id="paint1_linear_269_1870" x1="37.55" y1="45.65" x2="16.1" y2="-3.3" gradientUnits="userSpaceOnUse">
<stop stop-opacity="0.03"/>
<stop offset="1" stop-opacity="0"/>
</linearGradient>
<linearGradient id="paint2_linear_269_1870" x1="15" y1="2.2" x2="35.35" y2="41.8" gradientUnits="userSpaceOnUse">
<stop stop-color="white" stop-opacity="0.57"/>
<stop offset="1" stop-color="white" stop-opacity="0"/>
</linearGradient>
</defs>
</svg>
