<svg width="46" height="48" viewBox="0 0 46 48" fill="none" xmlns="http://www.w3.org/2000/svg">
<g filter="url(#filter0_d_701_14144)">
<path fill-rule="evenodd" clip-rule="evenodd" d="M22.584 4.00984C22.8613 3.99672 23.1387 3.99672 23.416 4.00984C24.486 4.06377 25.4728 4.37425 26.5705 4.88442C27.6404 5.38002 28.8826 6.09427 30.4562 7.00238L30.5438 7.0534C32.1174 7.96005 33.361 8.67721 34.3244 9.35356C35.3156 10.0489 36.0761 10.7456 36.66 11.645C36.8089 11.8782 36.949 12.1187 37.0745 12.365C37.5635 13.3169 37.7883 14.3256 37.8949 15.5296C38 16.703 38 18.1359 38 19.9492V20.0512C38 21.8645 38 23.2974 37.8949 24.4708C37.7883 25.6748 37.5635 26.682 37.0745 27.6339C36.949 27.8817 36.8089 28.1222 36.6585 28.3554C35.9506 29.4501 34.9711 30.2503 33.6369 31.1074C32.7917 31.6511 31.7612 32.2444 30.5219 32.9586L30.4562 32.998C28.8826 33.9046 27.6404 34.6218 26.5705 35.1174C25.4728 35.6261 24.486 35.9366 23.416 35.9891C23.1387 36.0036 22.8613 36.0036 22.584 35.9891C21.5126 35.9366 20.5272 35.6247 19.4295 35.1174C18.3596 34.6218 17.1159 33.9046 15.5438 32.998L15.4781 32.9601C14.2519 32.2531 13.2287 31.6628 12.3879 31.1235C11.042 30.2591 10.0524 29.4574 9.34148 28.3539C9.19098 28.1214 9.05213 27.8816 8.92546 27.6353C8.43499 26.682 8.21166 25.6748 8.1051 24.4708C8 23.2974 8 21.8645 8 20.0512V19.9492C8 18.1359 8 16.703 8.1051 15.5296C8.21166 14.3256 8.43499 13.3169 8.92546 12.3665C9.05207 12.1193 9.19092 11.8785 9.34148 11.645C9.92244 10.7456 10.6844 10.0489 11.6756 9.35356C12.639 8.67721 13.8826 7.96005 15.4562 7.0534L15.5438 7.00238C17.1174 6.09427 18.3596 5.37857 19.4295 4.88297C20.5272 4.37425 21.5126 4.06377 22.5825 4.0113L22.584 4.00984ZM32.6458 29.1425C32.17 28.1507 31.4231 27.3135 30.4912 26.7275C29.5593 26.1415 28.4804 25.8306 27.3791 25.8308H18.6209C17.5193 25.8303 16.4402 26.1411 15.508 26.7271C14.5758 27.3131 13.8286 28.1505 13.3528 29.1425L13.5717 29.2839C14.3629 29.7926 15.3424 30.3567 16.5933 31.0783C18.2209 32.017 19.3814 32.6831 20.3506 33.1335C21.3024 33.5738 22.0016 33.772 22.692 33.8055C22.8964 33.8157 23.1022 33.8157 23.308 33.8055C23.9984 33.772 24.6976 33.5752 25.6494 33.1335C26.6201 32.6831 27.7791 32.017 29.4052 31.0783C30.6708 30.3494 31.6561 29.781 32.4516 29.2693L32.6458 29.1425ZM23 8.70345C22.0895 8.70345 21.1878 8.88254 20.3466 9.23049C19.5054 9.57845 18.741 10.0885 18.0972 10.7314C17.4533 11.3743 16.9426 12.1376 16.5942 12.9776C16.2457 13.8177 16.0664 14.718 16.0664 15.6273C16.0664 16.5365 16.2457 17.4368 16.5942 18.2769C16.9426 19.1169 17.4533 19.8802 18.0972 20.5231C18.741 21.1661 19.5054 21.6761 20.3466 22.024C21.1878 22.372 22.0895 22.5511 23 22.5511C24.8389 22.5511 26.6025 21.8216 27.9028 20.5231C29.2031 19.2247 29.9336 17.4636 29.9336 15.6273C29.9336 13.7909 29.2031 12.0299 27.9028 10.7314C26.6025 9.43292 24.8389 8.70345 23 8.70345Z" fill="url(#paint0_linear_701_14144)"/>
</g>
<defs>
<filter id="filter0_d_701_14144" x="0" y="0" width="46" height="48" filterUnits="userSpaceOnUse" color-interpolation-filters="sRGB">
<feFlood flood-opacity="0" result="BackgroundImageFix"/>
<feColorMatrix in="SourceAlpha" type="matrix" values="0 0 0 0 0 0 0 0 0 0 0 0 0 0 0 0 0 0 127 0" result="hardAlpha"/>
<feOffset dy="4"/>
<feGaussianBlur stdDeviation="4"/>
<feComposite in2="hardAlpha" operator="out"/>
<feColorMatrix type="matrix" values="0 0 0 0 0.996078 0 0 0 0 0.698039 0 0 0 0 0.341176 0 0 0 0.33 0"/>
<feBlend mode="normal" in2="BackgroundImageFix" result="effect1_dropShadow_701_14144"/>
<feBlend mode="normal" in="SourceGraphic" in2="effect1_dropShadow_701_14144" result="shape"/>
</filter>
<linearGradient id="paint0_linear_701_14144" x1="23" y1="4" x2="23" y2="36" gradientUnits="userSpaceOnUse">
<stop stop-color="#FBD4A4"/>
<stop offset="1" stop-color="#FEAA46"/>
</linearGradient>
</defs>
</svg>
