<svg width="50" height="50" viewBox="0 0 50 50" fill="none" xmlns="http://www.w3.org/2000/svg">
<g filter="url(#filter0_d_269_1885)">
<path d="M37.8333 4.6835V2.66683C37.8333 2.1806 37.6402 1.71428 37.2964 1.37047C36.9526 1.02665 36.4862 0.833496 36 0.833496C35.5138 0.833496 35.0475 1.02665 34.7036 1.37047C34.3598 1.71428 34.1667 2.1806 34.1667 2.66683V4.50016H26.8333V2.66683C26.8333 2.1806 26.6402 1.71428 26.2964 1.37047C25.9525 1.02665 25.4862 0.833496 25 0.833496C24.5138 0.833496 24.0475 1.02665 23.7036 1.37047C23.3598 1.71428 23.1667 2.1806 23.1667 2.66683V4.50016H15.8333V2.66683C15.8333 2.1806 15.6402 1.71428 15.2964 1.37047C14.9525 1.02665 14.4862 0.833496 14 0.833496C13.5138 0.833496 13.0475 1.02665 12.7036 1.37047C12.3598 1.71428 12.1667 2.1806 12.1667 2.66683V4.6835C10.0962 5.10614 8.23528 6.23116 6.89894 7.86818C5.56261 9.50519 4.8329 11.5536 4.83334 13.6668V32.0002C4.83334 33.2039 5.07044 34.3959 5.53111 35.5081C5.99178 36.6203 6.66699 37.6308 7.51819 38.482C9.23727 40.2011 11.5689 41.1668 14 41.1668H36C37.2038 41.1668 38.3958 40.9297 39.5079 40.4691C40.6201 40.0084 41.6306 39.3332 42.4818 38.482C43.333 37.6308 44.0082 36.6203 44.4689 35.5081C44.9296 34.3959 45.1667 33.2039 45.1667 32.0002V13.6668C45.1671 11.5536 44.4374 9.50519 43.1011 7.86818C41.7647 6.23116 39.9038 5.10614 37.8333 4.6835ZM14.9167 32.0002C14.3728 32.0002 13.8411 31.8389 13.3889 31.5367C12.9366 31.2345 12.5841 30.805 12.376 30.3025C12.1679 29.8 12.1134 29.2471 12.2195 28.7137C12.3256 28.1802 12.5875 27.6902 12.9721 27.3056C13.3567 26.921 13.8467 26.6591 14.3802 26.553C14.9136 26.4469 15.4666 26.5014 15.969 26.7095C16.4715 26.9176 16.901 27.2701 17.2032 27.7223C17.5054 28.1746 17.6667 28.7063 17.6667 29.2502C17.6667 29.9795 17.3769 30.679 16.8612 31.1947C16.3455 31.7104 15.646 32.0002 14.9167 32.0002ZM14.9167 22.8335C14.3728 22.8335 13.8411 22.6722 13.3889 22.37C12.9366 22.0679 12.5841 21.6384 12.376 21.1359C12.1679 20.6334 12.1134 20.0804 12.2195 19.547C12.3256 19.0136 12.5875 18.5235 12.9721 18.139C13.3567 17.7544 13.8467 17.4924 14.3802 17.3863C14.9136 17.2802 15.4666 17.3347 15.969 17.5428C16.4715 17.751 16.901 18.1034 17.2032 18.5557C17.5054 19.0079 17.6667 19.5396 17.6667 20.0835C17.6667 20.8128 17.3769 21.5123 16.8612 22.028C16.3455 22.5438 15.646 22.8335 14.9167 22.8335ZM25 32.0002C24.4561 32.0002 23.9244 31.8389 23.4722 31.5367C23.02 31.2345 22.6675 30.805 22.4593 30.3025C22.2512 29.8 22.1967 29.2471 22.3028 28.7137C22.409 28.1802 22.6709 27.6902 23.0555 27.3056C23.4401 26.921 23.9301 26.6591 24.4635 26.553C24.997 26.4469 25.5499 26.5014 26.0524 26.7095C26.5549 26.9176 26.9844 27.2701 27.2865 27.7223C27.5887 28.1746 27.75 28.7063 27.75 29.2502C27.75 29.9795 27.4603 30.679 26.9445 31.1947C26.4288 31.7104 25.7293 32.0002 25 32.0002ZM25 22.8335C24.4561 22.8335 23.9244 22.6722 23.4722 22.37C23.02 22.0679 22.6675 21.6384 22.4593 21.1359C22.2512 20.6334 22.1967 20.0804 22.3028 19.547C22.409 19.0136 22.6709 18.5235 23.0555 18.139C23.4401 17.7544 23.9301 17.4924 24.4635 17.3863C24.997 17.2802 25.5499 17.3347 26.0524 17.5428C26.5549 17.751 26.9844 18.1034 27.2865 18.5557C27.5887 19.0079 27.75 19.5396 27.75 20.0835C27.75 20.8128 27.4603 21.5123 26.9445 22.028C26.4288 22.5438 25.7293 22.8335 25 22.8335ZM35.0833 32.0002C34.5394 32.0002 34.0078 31.8389 33.5555 31.5367C33.1033 31.2345 32.7508 30.805 32.5427 30.3025C32.3345 29.8 32.2801 29.2471 32.3862 28.7137C32.4923 28.1802 32.7542 27.6902 33.1388 27.3056C33.5234 26.921 34.0134 26.6591 34.5468 26.553C35.0803 26.4469 35.6332 26.5014 36.1357 26.7095C36.6382 26.9176 37.0677 27.2701 37.3699 27.7223C37.6721 28.1746 37.8333 28.7063 37.8333 29.2502C37.8333 29.9795 37.5436 30.679 37.0279 31.1947C36.5122 31.7104 35.8127 32.0002 35.0833 32.0002ZM35.0833 22.8335C34.5394 22.8335 34.0078 22.6722 33.5555 22.37C33.1033 22.0679 32.7508 21.6384 32.5427 21.1359C32.3345 20.6334 32.2801 20.0804 32.3862 19.547C32.4923 19.0136 32.7542 18.5235 33.1388 18.139C33.5234 17.7544 34.0134 17.4924 34.5468 17.3863C35.0803 17.2802 35.6332 17.3347 36.1357 17.5428C36.6382 17.751 37.0677 18.1034 37.3699 18.5557C37.6721 19.0079 37.8333 19.5396 37.8333 20.0835C37.8333 20.8128 37.5436 21.5123 37.0279 22.028C36.5122 22.5438 35.8127 22.8335 35.0833 22.8335Z" fill="url(#paint0_linear_269_1885)"/>
<path d="M37.3333 4.6835V5.09174L37.7333 5.17339C39.6909 5.57298 41.4503 6.63664 42.7137 8.18436C43.9772 9.73208 44.6671 11.6688 44.6667 13.6667V13.6668V32.0002C44.6667 33.1383 44.4425 34.2653 44.007 35.3168C43.5714 36.3682 42.933 37.3237 42.1283 38.1284C41.3235 38.9332 40.3681 39.5716 39.3166 40.0071C38.2651 40.4427 37.1381 40.6668 36 40.6668H14C11.7015 40.6668 9.49706 39.7537 7.87174 38.1284C7.06697 37.3237 6.42859 36.3682 5.99305 35.3168C5.55751 34.2653 5.33334 33.1383 5.33334 32.0002V13.6668V13.6667C5.33293 11.6688 6.02283 9.73208 7.28627 8.18436C8.54972 6.63664 10.3091 5.57298 12.2667 5.17339L12.6667 5.09174V4.6835V2.66683C12.6667 2.31321 12.8071 1.97407 13.0572 1.72402C13.3072 1.47397 13.6464 1.3335 14 1.3335C14.3536 1.3335 14.6928 1.47397 14.9428 1.72402C15.1929 1.97407 15.3333 2.31321 15.3333 2.66683V4.50016V5.00016H15.8333H23.1667H23.6667V4.50016V2.66683C23.6667 2.31321 23.8071 1.97407 24.0572 1.72402C24.3072 1.47397 24.6464 1.3335 25 1.3335C25.3536 1.3335 25.6928 1.47397 25.9428 1.72402C26.1929 1.97407 26.3333 2.31321 26.3333 2.66683V4.50016V5.00016H26.8333H34.1667H34.6667V4.50016V2.66683C34.6667 2.31321 34.8071 1.97407 35.0572 1.72402C35.3072 1.47397 35.6464 1.3335 36 1.3335C36.3536 1.3335 36.6928 1.47397 36.9428 1.72402C37.1929 1.97407 37.3333 2.31321 37.3333 2.66683V4.6835ZM13.1111 31.9524C13.6455 32.3096 14.2739 32.5002 14.9167 32.5002C15.7786 32.5002 16.6053 32.1578 17.2148 31.5483C17.8243 30.9388 18.1667 30.1121 18.1667 29.2502C18.1667 28.6074 17.9761 27.979 17.6189 27.4446C17.2618 26.9101 16.7543 26.4935 16.1604 26.2476C15.5665 26.0016 14.9131 25.9372 14.2826 26.0626C13.6522 26.188 13.0731 26.4975 12.6186 26.9521C12.1641 27.4066 11.8545 27.9857 11.7291 28.6161C11.6037 29.2466 11.6681 29.9 11.9141 30.4939C12.16 31.0877 12.5766 31.5953 13.1111 31.9524ZM13.1111 22.7858C13.6455 23.1429 14.2739 23.3335 14.9167 23.3335C15.7786 23.3335 16.6053 22.9911 17.2148 22.3816C17.8243 21.7721 18.1667 20.9454 18.1667 20.0835C18.1667 19.4407 17.9761 18.8124 17.6189 18.2779C17.2618 17.7434 16.7542 17.3269 16.1604 17.0809C15.5665 16.8349 14.9131 16.7705 14.2826 16.8959C13.6522 17.0213 13.0731 17.3309 12.6186 17.7854C12.1641 18.2399 11.8545 18.819 11.7291 19.4495C11.6037 20.0799 11.6681 20.7334 11.9141 21.3272C12.16 21.9211 12.5766 22.4287 13.1111 22.7858ZM23.1944 31.9524C23.7289 32.3096 24.3572 32.5002 25 32.5002C25.862 32.5002 26.6886 32.1578 27.2981 31.5483C27.9076 30.9388 28.25 30.1121 28.25 29.2502C28.25 28.6074 28.0594 27.979 27.7023 27.4446C27.3452 26.9101 26.8376 26.4935 26.2437 26.2476C25.6499 26.0016 24.9964 25.9372 24.366 26.0626C23.7355 26.188 23.1564 26.4975 22.7019 26.9521C22.2474 27.4066 21.9379 27.9857 21.8125 28.6161C21.687 29.2466 21.7514 29.9 21.9974 30.4939C22.2434 31.0877 22.6599 31.5953 23.1944 31.9524ZM23.1944 22.7858C23.7289 23.1429 24.3572 23.3335 25 23.3335C25.862 23.3335 26.6886 22.9911 27.2981 22.3816C27.9076 21.7721 28.25 20.9455 28.25 20.0835C28.25 19.4407 28.0594 18.8124 27.7023 18.2779C27.3452 17.7434 26.8376 17.3269 26.2437 17.0809C25.6499 16.8349 24.9964 16.7705 24.366 16.8959C23.7355 17.0213 23.1564 17.3309 22.7019 17.7854C22.2474 18.2399 21.9379 18.819 21.8125 19.4495C21.687 20.0799 21.7514 20.7334 21.9974 21.3272C22.2434 21.9211 22.6599 22.4287 23.1944 22.7858ZM33.2777 31.9524C33.8122 32.3096 34.4405 32.5002 35.0833 32.5002C35.9453 32.5002 36.7719 32.1578 37.3814 31.5483C37.9909 30.9388 38.3333 30.1121 38.3333 29.2502C38.3333 28.6074 38.1427 27.979 37.7856 27.4446C37.4285 26.9101 36.9209 26.4935 36.3271 26.2476C35.7332 26.0016 35.0797 25.9372 34.4493 26.0626C33.8189 26.188 33.2398 26.4975 32.7852 26.9521C32.3307 27.4066 32.0212 27.9857 31.8958 28.6161C31.7704 29.2466 31.8347 29.9 32.0807 30.4939C32.3267 31.0877 32.7433 31.5953 33.2777 31.9524ZM33.2777 22.7858C33.8122 23.1429 34.4405 23.3335 35.0833 23.3335C35.9453 23.3335 36.7719 22.9911 37.3814 22.3816C37.9909 21.7721 38.3333 20.9455 38.3333 20.0835C38.3333 19.4407 38.1427 18.8124 37.7856 18.2779C37.4285 17.7434 36.9209 17.3269 36.3271 17.0809C35.7332 16.8349 35.0797 16.7705 34.4493 16.8959C33.8189 17.0213 33.2398 17.3309 32.7852 17.7854C32.3307 18.2399 32.0212 18.819 31.8958 19.4495C31.7704 20.0799 31.8347 20.7334 32.0807 21.3272C32.3267 21.9211 32.7433 22.4287 33.2777 22.7858Z" stroke="url(#paint1_linear_269_1885)"/>
<path d="M37.3333 4.6835V5.09174L37.7333 5.17339C39.6909 5.57298 41.4503 6.63664 42.7137 8.18436C43.9772 9.73208 44.6671 11.6688 44.6667 13.6667V13.6668V32.0002C44.6667 33.1383 44.4425 34.2653 44.007 35.3168C43.5714 36.3682 42.933 37.3237 42.1283 38.1284C41.3235 38.9332 40.3681 39.5716 39.3166 40.0071C38.2651 40.4427 37.1381 40.6668 36 40.6668H14C11.7015 40.6668 9.49706 39.7537 7.87174 38.1284C7.06697 37.3237 6.42859 36.3682 5.99305 35.3168C5.55751 34.2653 5.33334 33.1383 5.33334 32.0002V13.6668V13.6667C5.33293 11.6688 6.02283 9.73208 7.28627 8.18436C8.54972 6.63664 10.3091 5.57298 12.2667 5.17339L12.6667 5.09174V4.6835V2.66683C12.6667 2.31321 12.8071 1.97407 13.0572 1.72402C13.3072 1.47397 13.6464 1.3335 14 1.3335C14.3536 1.3335 14.6928 1.47397 14.9428 1.72402C15.1929 1.97407 15.3333 2.31321 15.3333 2.66683V4.50016V5.00016H15.8333H23.1667H23.6667V4.50016V2.66683C23.6667 2.31321 23.8071 1.97407 24.0572 1.72402C24.3072 1.47397 24.6464 1.3335 25 1.3335C25.3536 1.3335 25.6928 1.47397 25.9428 1.72402C26.1929 1.97407 26.3333 2.31321 26.3333 2.66683V4.50016V5.00016H26.8333H34.1667H34.6667V4.50016V2.66683C34.6667 2.31321 34.8071 1.97407 35.0572 1.72402C35.3072 1.47397 35.6464 1.3335 36 1.3335C36.3536 1.3335 36.6928 1.47397 36.9428 1.72402C37.1929 1.97407 37.3333 2.31321 37.3333 2.66683V4.6835ZM13.1111 31.9524C13.6455 32.3096 14.2739 32.5002 14.9167 32.5002C15.7786 32.5002 16.6053 32.1578 17.2148 31.5483C17.8243 30.9388 18.1667 30.1121 18.1667 29.2502C18.1667 28.6074 17.9761 27.979 17.6189 27.4446C17.2618 26.9101 16.7543 26.4935 16.1604 26.2476C15.5665 26.0016 14.9131 25.9372 14.2826 26.0626C13.6522 26.188 13.0731 26.4975 12.6186 26.9521C12.1641 27.4066 11.8545 27.9857 11.7291 28.6161C11.6037 29.2466 11.6681 29.9 11.9141 30.4939C12.16 31.0877 12.5766 31.5953 13.1111 31.9524ZM13.1111 22.7858C13.6455 23.1429 14.2739 23.3335 14.9167 23.3335C15.7786 23.3335 16.6053 22.9911 17.2148 22.3816C17.8243 21.7721 18.1667 20.9454 18.1667 20.0835C18.1667 19.4407 17.9761 18.8124 17.6189 18.2779C17.2618 17.7434 16.7542 17.3269 16.1604 17.0809C15.5665 16.8349 14.9131 16.7705 14.2826 16.8959C13.6522 17.0213 13.0731 17.3309 12.6186 17.7854C12.1641 18.2399 11.8545 18.819 11.7291 19.4495C11.6037 20.0799 11.6681 20.7334 11.9141 21.3272C12.16 21.9211 12.5766 22.4287 13.1111 22.7858ZM23.1944 31.9524C23.7289 32.3096 24.3572 32.5002 25 32.5002C25.862 32.5002 26.6886 32.1578 27.2981 31.5483C27.9076 30.9388 28.25 30.1121 28.25 29.2502C28.25 28.6074 28.0594 27.979 27.7023 27.4446C27.3452 26.9101 26.8376 26.4935 26.2437 26.2476C25.6499 26.0016 24.9964 25.9372 24.366 26.0626C23.7355 26.188 23.1564 26.4975 22.7019 26.9521C22.2474 27.4066 21.9379 27.9857 21.8125 28.6161C21.687 29.2466 21.7514 29.9 21.9974 30.4939C22.2434 31.0877 22.6599 31.5953 23.1944 31.9524ZM23.1944 22.7858C23.7289 23.1429 24.3572 23.3335 25 23.3335C25.862 23.3335 26.6886 22.9911 27.2981 22.3816C27.9076 21.7721 28.25 20.9455 28.25 20.0835C28.25 19.4407 28.0594 18.8124 27.7023 18.2779C27.3452 17.7434 26.8376 17.3269 26.2437 17.0809C25.6499 16.8349 24.9964 16.7705 24.366 16.8959C23.7355 17.0213 23.1564 17.3309 22.7019 17.7854C22.2474 18.2399 21.9379 18.819 21.8125 19.4495C21.687 20.0799 21.7514 20.7334 21.9974 21.3272C22.2434 21.9211 22.6599 22.4287 23.1944 22.7858ZM33.2777 31.9524C33.8122 32.3096 34.4405 32.5002 35.0833 32.5002C35.9453 32.5002 36.7719 32.1578 37.3814 31.5483C37.9909 30.9388 38.3333 30.1121 38.3333 29.2502C38.3333 28.6074 38.1427 27.979 37.7856 27.4446C37.4285 26.9101 36.9209 26.4935 36.3271 26.2476C35.7332 26.0016 35.0797 25.9372 34.4493 26.0626C33.8189 26.188 33.2398 26.4975 32.7852 26.9521C32.3307 27.4066 32.0212 27.9857 31.8958 28.6161C31.7704 29.2466 31.8347 29.9 32.0807 30.4939C32.3267 31.0877 32.7433 31.5953 33.2777 31.9524ZM33.2777 22.7858C33.8122 23.1429 34.4405 23.3335 35.0833 23.3335C35.9453 23.3335 36.7719 22.9911 37.3814 22.3816C37.9909 21.7721 38.3333 20.9455 38.3333 20.0835C38.3333 19.4407 38.1427 18.8124 37.7856 18.2779C37.4285 17.7434 36.9209 17.3269 36.3271 17.0809C35.7332 16.8349 35.0797 16.7705 34.4493 16.8959C33.8189 17.0213 33.2398 17.3309 32.7852 17.7854C32.3307 18.2399 32.0212 18.819 31.8958 19.4495C31.7704 20.0799 31.8347 20.7334 32.0807 21.3272C32.3267 21.9211 32.7433 22.4287 33.2777 22.7858Z" stroke="url(#paint2_linear_269_1885)" stroke-opacity="0.2"/>
</g>
<defs>
<filter id="filter0_d_269_1885" x="0.833336" y="0.833496" width="48.3333" height="48.3335" filterUnits="userSpaceOnUse" color-interpolation-filters="sRGB">
<feFlood flood-opacity="0" result="BackgroundImageFix"/>
<feColorMatrix in="SourceAlpha" type="matrix" values="0 0 0 0 0 0 0 0 0 0 0 0 0 0 0 0 0 0 127 0" result="hardAlpha"/>
<feOffset dy="4"/>
<feGaussianBlur stdDeviation="2"/>
<feComposite in2="hardAlpha" operator="out"/>
<feColorMatrix type="matrix" values="0 0 0 0 0.992157 0 0 0 0 0.764706 0 0 0 0 0.494118 0 0 0 0.38 0"/>
<feBlend mode="normal" in2="BackgroundImageFix" result="effect1_dropShadow_269_1885"/>
<feBlend mode="normal" in="SourceGraphic" in2="effect1_dropShadow_269_1885" result="shape"/>
</filter>
<linearGradient id="paint0_linear_269_1885" x1="10.5" y1="3.5" x2="41" y2="41" gradientUnits="userSpaceOnUse">
<stop stop-color="#FBD4A4"/>
<stop offset="1" stop-color="#FEAA46"/>
</linearGradient>
<linearGradient id="paint1_linear_269_1885" x1="25" y1="0.833496" x2="25" y2="41.1668" gradientUnits="userSpaceOnUse">
<stop stop-opacity="0"/>
<stop offset="1" stop-opacity="0.05"/>
</linearGradient>
<linearGradient id="paint2_linear_269_1885" x1="25" y1="0.833496" x2="25" y2="41.1668" gradientUnits="userSpaceOnUse">
<stop stop-color="white" stop-opacity="0.46"/>
<stop offset="1" stop-color="white" stop-opacity="0"/>
</linearGradient>
</defs>
</svg>
