<svg width="14" height="14" viewBox="0 0 14 14" fill="none" xmlns="http://www.w3.org/2000/svg">
<path d="M11.5 0H12.5C13.3284 0 14 0.671573 14 1.5V12.5C14 13.3284 13.3284 14 12.5 14H11.5C10.6716 14 10 13.3284 10 12.5V1.5C10 0.671573 10.6716 0 11.5 0Z" fill="black"/>
<path d="M1.58008 0C1.97674 0.00118043 2.35853 0.151044 2.65008 0.42L8.47008 5.795C8.63709 5.94816 8.77044 6.13437 8.86167 6.34181C8.95289 6.54925 9 6.77339 9 7C9 7.22661 8.95289 7.45075 8.86167 7.65819C8.77044 7.86562 8.63709 8.05184 8.47008 8.205L2.65008 13.58C2.42441 13.7877 2.14317 13.9252 1.84066 13.9758C1.53815 14.0264 1.22746 13.9879 0.946497 13.8649C0.66553 13.7419 0.426434 13.5398 0.258377 13.2832C0.0903206 13.0266 0.000572205 12.7267 7.9155e-05 12.42V1.58C0.00139809 1.16136 0.168284 0.76025 0.464307 0.464228C0.760329 0.168206 1.16144 0.00131855 1.58008 0Z" fill="black"/>
</svg>
