<svg width="15" height="24" viewBox="0 0 15 24" fill="none" xmlns="http://www.w3.org/2000/svg">
<path d="M14.9975 6.19278C14.9983 6.17503 15.0001 6.15728 15 6.13952C15 6.11218 14.998 6.08515 14.9959 6.05813C14.9951 6.04695 14.9951 6.0357 14.994 6.02452C14.9913 5.999 14.9868 5.97396 14.9824 5.94883C14.9802 5.93568 14.9787 5.92252 14.976 5.90952C14.9715 5.88804 14.9654 5.86712 14.9596 5.84604C14.9552 5.82939 14.9512 5.81259 14.9461 5.79603C14.9407 5.77938 14.9339 5.76322 14.9279 5.74681C14.9203 5.72644 14.9132 5.70591 14.9044 5.68586C14.899 5.67342 14.8924 5.66161 14.8866 5.6494C14.8755 5.62642 14.8647 5.60336 14.852 5.58093C14.8462 5.57054 14.8393 5.5608 14.8331 5.55049C14.8192 5.52751 14.8055 5.50445 14.7897 5.48217C14.7777 5.46505 14.7641 5.44904 14.7512 5.43256C14.74 5.41829 14.7298 5.40363 14.7178 5.38976C14.6913 5.35885 14.663 5.32937 14.6332 5.30107L14.6327 5.30052L9.40686 0.348211C8.91701 -0.11607 8.12263 -0.11607 7.6327 0.348211C7.14276 0.812413 7.14276 1.56519 7.6327 2.02947L10.5708 4.81373C5.57016 5.27801 1.25472 8.7858 0.225085 13.691C-0.165238 15.549 -0.0464588 17.4709 0.570082 19.2731C0.579449 19.3007 0.588063 19.3286 0.597765 19.3561C1.16384 20.968 2.11253 22.4353 3.37087 23.6453C3.42154 23.6935 3.47649 23.7375 3.53513 23.7768C3.78093 23.9444 4.08251 24.0218 4.38395 23.9947C4.67103 23.9692 4.93995 23.8503 5.14512 23.6583C5.63882 23.1976 5.64501 22.4449 5.15884 21.9771C4.8601 21.6892 4.58271 21.382 4.32867 21.0579C2.78643 19.093 2.17463 16.5914 2.68606 14.1549C3.499 10.282 6.92439 7.51549 10.8806 7.17476L7.63261 10.2527C7.14268 10.717 7.14268 11.4697 7.63261 11.934C7.74898 12.0446 7.88726 12.1323 8.0395 12.192C8.19174 12.2518 8.35495 12.2825 8.51974 12.2823C8.84081 12.2823 9.16189 12.1662 9.40678 11.934L14.6265 6.98756L14.6321 6.98217L14.6327 6.9817L14.6357 6.97853C14.6639 6.95166 14.6908 6.92352 14.7162 6.89412C14.7236 6.88572 14.7298 6.87676 14.7368 6.8682C14.7549 6.84609 14.7729 6.8239 14.7894 6.80052C14.799 6.78689 14.8072 6.7727 14.8162 6.75875C14.8284 6.73973 14.8409 6.72102 14.852 6.70129C14.8625 6.68274 14.8714 6.66364 14.8807 6.64478C14.8887 6.62877 14.897 6.61316 14.9042 6.59675C14.9149 6.57234 14.9237 6.54745 14.9327 6.52257C14.9369 6.51068 14.9419 6.49919 14.9457 6.48706C14.9564 6.45369 14.965 6.41993 14.9726 6.38601C14.9736 6.38165 14.9751 6.37753 14.976 6.37309L14.9762 6.37206C14.9843 6.33307 14.9905 6.29383 14.9944 6.25444C14.9965 6.23368 14.9965 6.21323 14.9975 6.19278Z" fill="black"/>
</svg>
