<svg width="24" height="24" viewBox="0 0 24 24" fill="none" xmlns="http://www.w3.org/2000/svg">
<path fill-rule="evenodd" clip-rule="evenodd" d="M24 13.9776V8.3712C24 6.8676 23.9208 5.5776 23.6808 4.4988C23.4384 3.4068 23.016 2.4612 22.2768 1.722C21.5376 0.9828 20.5932 0.5616 19.5012 0.318C18.4224 0.0780001 17.1324 0 15.6288 0H8.3712C6.8676 0 5.5776 0.0792 4.4988 0.3192C3.4068 0.5616 2.4612 0.984 1.722 1.7232C0.9828 2.4624 0.5616 3.4068 0.318 4.4988C0.0792001 5.5776 0 6.8676 0 8.3712V15.6288C0 17.1324 0.0792 18.4224 0.3192 19.5012C0.5616 20.5932 0.984 21.5388 1.7232 22.278C2.4624 23.0172 3.4068 23.4384 4.4988 23.682C5.5776 23.922 6.8676 24 8.3712 24H15.6288C17.1324 24 18.4224 23.9208 19.5012 23.6808C20.5932 23.4384 21.5388 23.016 22.278 22.2768C23.0172 21.5376 23.4384 20.5932 23.682 19.5012C23.922 18.4224 24 17.1324 24 15.6288V13.9776ZM2.6616 5.0196C2.4792 5.8392 2.4 6.924 2.4 8.3712V10.9152C3.264 10.0848 4.068 9.4044 4.8468 8.91C5.79 8.31 6.7584 7.938 7.8024 7.938C8.8464 7.938 9.8148 8.31 10.7592 8.91C11.6904 9.5028 12.6588 10.3584 13.722 11.4228L15.672 13.3728C16.8528 12.4008 18.0096 11.7288 19.2552 11.5728C20.0748 11.4708 20.8488 11.6004 21.6 11.904V8.3712C21.6 6.9228 21.5208 5.8392 21.3384 5.0196C21.1584 4.2132 20.8968 3.7356 20.58 3.42C20.2644 3.1032 19.7868 2.8404 18.9804 2.6616C18.1608 2.4792 17.0784 2.4 15.6288 2.4H8.3712C6.9228 2.4 5.8392 2.4792 5.0196 2.6616C4.2132 2.8416 3.7356 3.1032 3.42 3.42C3.1032 3.7356 2.8404 4.2132 2.6616 5.0196Z" fill="#8D96A5"/>
<path fill-rule="evenodd" clip-rule="evenodd" d="M14.3999 7.1998C14.3999 6.56329 14.6528 5.95284 15.1028 5.50275C15.5529 5.05266 16.1634 4.7998 16.7999 4.7998C17.4364 4.7998 18.0469 5.05266 18.497 5.50275C18.947 5.95284 19.1999 6.56329 19.1999 7.1998C19.1999 7.83632 18.947 8.44677 18.497 8.89686C18.0469 9.34695 17.4364 9.5998 16.7999 9.5998C16.1634 9.5998 15.5529 9.34695 15.1028 8.89686C14.6528 8.44677 14.3999 7.83632 14.3999 7.1998Z" fill="#8D96A5"/>
</svg>
