<svg width="38" height="40" viewBox="0 0 38 40" fill="none" xmlns="http://www.w3.org/2000/svg">
<g filter="url(#filter0_d_701_14168)">
<path fill-rule="evenodd" clip-rule="evenodd" d="M4 15.9999C4 27.6673 5.13998 28.0057 13.8141 30.5799C14.4182 30.7593 15.0596 30.9495 15.7391 31.1551C21.4603 32.8862 24.4367 31.9152 25.9583 28.6275C27.5685 28.6135 28.9335 28.5154 30.0405 28.197C31.3262 27.8273 32.307 27.1474 32.9456 26.0069C33.5338 24.9565 33.7701 23.6162 33.8846 22.0498C34 20.4729 34 18.4834 34 16.039V15.9431C34 13.499 34 11.5104 33.8846 9.93511C33.7701 8.37046 33.5338 7.03172 32.9449 5.98289C32.3054 4.84377 31.3234 4.16701 30.0386 3.79963C28.9323 3.48329 27.5679 3.38622 25.9583 3.37248C24.4366 0.0849823 21.4601 -0.886241 15.7391 0.844812C15.0981 1.03826 14.4565 1.22997 13.8143 1.41994C5.13998 3.99422 4 4.33257 4 15.9999ZM29.2978 25.7757C28.693 25.9497 27.8849 26.0463 26.7743 26.0843C27.3368 23.4998 27.4783 20.1104 27.4783 15.9999C27.4783 11.8894 27.3368 8.50008 26.7741 5.91551C27.8857 5.95314 28.6944 6.04898 29.2997 6.22209C30.0325 6.43159 30.3958 6.73114 30.653 7.18927C30.9608 7.73778 31.1729 8.6174 31.2826 10.1138C31.3906 11.5893 31.3914 13.489 31.3914 15.9912C31.3914 18.4932 31.3906 20.3941 31.2824 21.8713C31.1729 23.3694 30.9609 24.252 30.6523 24.8031C30.394 25.2643 30.0297 25.5651 29.2978 25.7757ZM20.9566 17.263C20.2361 17.263 19.6523 16.6975 19.6523 16C19.6523 15.3024 20.2362 14.7371 20.9566 14.7371C21.6769 14.7371 22.2609 15.3024 22.2609 16C22.2609 16.6975 21.6769 17.263 20.9566 17.263Z" fill="url(#paint0_linear_701_14168)"/>
<path d="M29.4372 5.74136C28.7727 5.55133 27.9157 5.45387 26.791 5.4158L26.1489 5.39406L26.2856 6.02187C26.8356 8.54838 26.9783 11.8892 26.9783 15.9999C26.9783 20.1106 26.8356 23.4515 26.2857 25.978L26.149 26.606L26.7914 26.584C27.9152 26.5455 28.7719 26.4473 29.436 26.2562M29.4372 5.74136L29.2997 6.22209L29.4372 5.74135C29.4372 5.74135 29.4372 5.74135 29.4372 5.74136ZM29.4372 5.74136C29.8419 5.85707 30.1753 6.00621 30.4516 6.21013C30.7323 6.41724 30.9317 6.66433 31.089 6.94455C31.4535 7.59394 31.6706 8.56695 31.7812 10.0773L31.7812 10.0773C31.8909 11.5753 31.8914 13.4964 31.8914 15.9912C31.8914 18.4858 31.8909 20.4081 31.7811 21.9078C31.6706 23.4198 31.4536 24.3955 31.0886 25.0474L31.0885 25.0475C30.9308 25.3291 30.731 25.5772 30.4503 25.7851C30.1738 25.99 29.8404 26.1398 29.436 26.2562M29.436 26.2562L29.2978 25.7757M29.436 26.2562C29.436 26.2562 29.436 26.2562 29.436 26.2562L29.2978 25.7757M29.2978 25.7757C28.791 25.9215 28.1414 26.013 27.2905 26.0611M29.2978 25.7757C30.0297 25.5651 30.394 25.2643 30.6523 24.8031C30.9609 24.252 31.1729 23.3694 31.2824 21.8713L27.2905 26.0611M27.2905 26.0611C27.2814 26.1045 27.2722 26.1477 27.2628 26.1906L26.7743 26.0843L27.2905 26.0611ZM25.954 28.1276L25.6375 28.1303L25.5046 28.4175C24.7945 29.9517 23.776 30.8975 22.2954 31.29C20.7785 31.6922 18.7109 31.5319 15.8839 30.6766C15.2314 30.4791 14.614 30.2959 14.0322 30.1231L13.9563 30.1006L13.9563 30.1006C11.7768 29.4538 10.1129 28.9591 8.82037 28.3979C7.53818 27.8412 6.67008 27.2385 6.05727 26.4039C5.44122 25.5649 5.04536 24.4401 4.80872 22.7681C4.57169 21.0934 4.5 18.9156 4.5 15.9999C4.5 13.0843 4.57169 10.9064 4.80872 9.23173C5.04537 7.55979 5.44124 6.43497 6.0573 5.59596C6.67012 4.76139 7.53825 4.15872 8.82048 3.602C10.113 3.04081 11.7769 2.54614 13.9563 1.89935C14.5993 1.70914 15.2417 1.51719 15.8836 1.32349L15.8839 1.32338C18.7108 0.468037 20.7784 0.307774 22.2953 0.709989C23.776 1.10259 24.7945 2.04834 25.5046 3.58251L25.6376 3.86976L25.9541 3.87246C27.5562 3.88613 28.8635 3.98366 29.9011 4.28036C31.0843 4.61867 31.9456 5.22434 32.5089 6.22767L32.9449 5.98289L32.5089 6.22768C33.0413 7.17595 33.2725 8.42176 33.3859 9.97161C33.4997 11.5245 33.5 13.4919 33.5 15.9431V16.039C33.5 18.4904 33.4997 20.4588 33.3859 22.0133C33.2725 23.5649 33.0413 24.8126 32.5094 25.7626C31.9466 26.7677 31.086 27.3761 29.9023 27.7165L29.9023 27.7165C28.8642 28.0151 27.5565 28.1136 25.954 28.1276ZM30.653 7.18927C30.9608 7.73778 31.1729 8.6174 31.2826 10.1138L30.653 7.18927ZM19.1523 16C19.1523 16.9886 19.9753 17.763 20.9566 17.763C21.9378 17.763 22.7609 16.9887 22.7609 16C22.7609 15.0112 21.9378 14.2371 20.9566 14.2371C19.9754 14.2371 19.1523 15.0112 19.1523 16Z" stroke="url(#paint1_linear_701_14168)"/>
<path d="M29.4372 5.74136C28.7727 5.55133 27.9157 5.45387 26.791 5.4158L26.1489 5.39406L26.2856 6.02187C26.8356 8.54838 26.9783 11.8892 26.9783 15.9999C26.9783 20.1106 26.8356 23.4515 26.2857 25.978L26.149 26.606L26.7914 26.584C27.9152 26.5455 28.7719 26.4473 29.436 26.2562M29.4372 5.74136L29.2997 6.22209L29.4372 5.74135C29.4372 5.74135 29.4372 5.74135 29.4372 5.74136ZM29.4372 5.74136C29.8419 5.85707 30.1753 6.00621 30.4516 6.21013C30.7323 6.41724 30.9317 6.66433 31.089 6.94455C31.4535 7.59394 31.6706 8.56695 31.7812 10.0773L31.7812 10.0773C31.8909 11.5753 31.8914 13.4964 31.8914 15.9912C31.8914 18.4858 31.8909 20.4081 31.7811 21.9078C31.6706 23.4198 31.4536 24.3955 31.0886 25.0474L31.0885 25.0475C30.9308 25.3291 30.731 25.5772 30.4503 25.7851C30.1738 25.99 29.8404 26.1398 29.436 26.2562M29.436 26.2562L29.2978 25.7757M29.436 26.2562C29.436 26.2562 29.436 26.2562 29.436 26.2562L29.2978 25.7757M29.2978 25.7757C28.791 25.9215 28.1414 26.013 27.2905 26.0611M29.2978 25.7757C30.0297 25.5651 30.394 25.2643 30.6523 24.8031C30.9609 24.252 31.1729 23.3694 31.2824 21.8713L27.2905 26.0611M27.2905 26.0611C27.2814 26.1045 27.2722 26.1477 27.2628 26.1906L26.7743 26.0843L27.2905 26.0611ZM25.954 28.1276L25.6375 28.1303L25.5046 28.4175C24.7945 29.9517 23.776 30.8975 22.2954 31.29C20.7785 31.6922 18.7109 31.5319 15.8839 30.6766C15.2314 30.4791 14.614 30.2959 14.0322 30.1231L13.9563 30.1006L13.9563 30.1006C11.7768 29.4538 10.1129 28.9591 8.82037 28.3979C7.53818 27.8412 6.67008 27.2385 6.05727 26.4039C5.44122 25.5649 5.04536 24.4401 4.80872 22.7681C4.57169 21.0934 4.5 18.9156 4.5 15.9999C4.5 13.0843 4.57169 10.9064 4.80872 9.23173C5.04537 7.55979 5.44124 6.43497 6.0573 5.59596C6.67012 4.76139 7.53825 4.15872 8.82048 3.602C10.113 3.04081 11.7769 2.54614 13.9563 1.89935C14.5993 1.70914 15.2417 1.51719 15.8836 1.32349L15.8839 1.32338C18.7108 0.468037 20.7784 0.307774 22.2953 0.709989C23.776 1.10259 24.7945 2.04834 25.5046 3.58251L25.6376 3.86976L25.9541 3.87246C27.5562 3.88613 28.8635 3.98366 29.9011 4.28036C31.0843 4.61867 31.9456 5.22434 32.5089 6.22767L32.9449 5.98289L32.5089 6.22768C33.0413 7.17595 33.2725 8.42176 33.3859 9.97161C33.4997 11.5245 33.5 13.4919 33.5 15.9431V16.039C33.5 18.4904 33.4997 20.4588 33.3859 22.0133C33.2725 23.5649 33.0413 24.8126 32.5094 25.7626C31.9466 26.7677 31.086 27.3761 29.9023 27.7165L29.9023 27.7165C28.8642 28.0151 27.5565 28.1136 25.954 28.1276ZM30.653 7.18927C30.9608 7.73778 31.1729 8.6174 31.2826 10.1138L30.653 7.18927ZM19.1523 16C19.1523 16.9886 19.9753 17.763 20.9566 17.763C21.9378 17.763 22.7609 16.9887 22.7609 16C22.7609 15.0112 21.9378 14.2371 20.9566 14.2371C19.9754 14.2371 19.1523 15.0112 19.1523 16Z" stroke="url(#paint2_linear_701_14168)" stroke-opacity="0.2"/>
</g>
<defs>
<filter id="filter0_d_701_14168" x="0" y="0" width="38" height="40" filterUnits="userSpaceOnUse" color-interpolation-filters="sRGB">
<feFlood flood-opacity="0" result="BackgroundImageFix"/>
<feColorMatrix in="SourceAlpha" type="matrix" values="0 0 0 0 0 0 0 0 0 0 0 0 0 0 0 0 0 0 127 0" result="hardAlpha"/>
<feOffset dy="4"/>
<feGaussianBlur stdDeviation="2"/>
<feComposite in2="hardAlpha" operator="out"/>
<feColorMatrix type="matrix" values="0 0 0 0 0.992157 0 0 0 0 0.729412 0 0 0 0 0.411765 0 0 0 0.33 0"/>
<feBlend mode="normal" in2="BackgroundImageFix" result="effect1_dropShadow_701_14168"/>
<feBlend mode="normal" in="SourceGraphic" in2="effect1_dropShadow_701_14168" result="shape"/>
</filter>
<linearGradient id="paint0_linear_701_14168" x1="19" y1="0" x2="19" y2="32" gradientUnits="userSpaceOnUse">
<stop stop-color="#FBD4A4"/>
<stop offset="1" stop-color="#FEAA46"/>
</linearGradient>
<linearGradient id="paint1_linear_701_14168" x1="26.875" y1="33.2" x2="10.5963" y2="-1.62703" gradientUnits="userSpaceOnUse">
<stop stop-opacity="0.03"/>
<stop offset="1" stop-opacity="0"/>
</linearGradient>
<linearGradient id="paint2_linear_701_14168" x1="11.5" y1="1.6" x2="26.845" y2="29.5942" gradientUnits="userSpaceOnUse">
<stop stop-color="white" stop-opacity="0.57"/>
<stop offset="1" stop-color="white" stop-opacity="0"/>
</linearGradient>
</defs>
</svg>
