<svg width="87" height="107" viewBox="0 0 87 107" fill="none" xmlns="http://www.w3.org/2000/svg">
<g filter="url(#filter0_d_105_1709)">
<g filter="url(#filter1_d_105_1709)">
<path d="M24.937 48.7371L40.2445 27.2207C42.7469 24.6621 42.462 21.1061 38.9782 19.3001C36.4417 17.4619 32.5767 18.3589 30.8469 20.4138C29.1171 22.4687 29.091 24.8307 28.8943 25.9585L24.937 48.7391V48.7371Z" fill="url(#paint0_linear_105_1709)"/>
</g>
<g filter="url(#filter2_d_105_1709)">
<path d="M21.3437 61.7832C21.3437 61.7832 24.2193 42.8315 25.2628 38.6093C26.2522 34.1904 24.5645 32.6533 20.6654 32.7877C17.8118 32.888 15.1087 34.4373 14.5287 36.8855C13.9488 39.3337 14.9261 41.3224 15.2371 42.3459C15.5482 43.3693 21.3437 61.7832 21.3437 61.7832Z" fill="url(#paint1_linear_105_1709)"/>
</g>
<path fill-rule="evenodd" clip-rule="evenodd" d="M42.5068 87.5055C42.5068 87.5055 52.2234 89.9819 60.7602 85.0693C70.9605 81.1542 79.2102 66.9042 64.0031 61.6967C64.0031 61.6967 78.8049 55.7226 67.6253 44.0975C63.8144 40.1362 59.5621 38.4967 55.6128 38.0592L65.3376 24.634C68.143 20.763 67.2781 15.3488 63.403 12.5414C61.4665 11.1386 59.1447 10.653 56.9554 11.0022C54.768 11.3514 52.7131 12.5353 51.3104 14.4719L27.9197 46.7585C27.9197 46.7585 19.2425 56.3407 23.7958 70.5284C28.3471 84.7182 42.5068 87.5055 42.5068 87.5055ZM38.5535 79.6242C38.9976 79.867 39.4555 80.1173 39.9307 80.3798L39.9347 80.3858V77.9977C39.9347 76.4867 39.9352 74.9755 39.9356 73.4642C39.9365 70.4414 39.9374 67.4182 39.9347 64.396C39.9327 61.1471 41.3555 58.7891 44.2874 57.3222C45.2366 56.8472 46.1763 56.3539 47.1159 55.8608C48.3832 55.1957 49.6502 54.5307 50.9397 53.9107C51.2601 53.7553 51.6719 53.7865 52.0834 53.8177C52.2724 53.832 52.4614 53.8463 52.6415 53.8425C52.5407 53.9889 52.4504 54.1538 52.36 54.3188C52.1642 54.6764 51.9683 55.0342 51.6662 55.2031C50.3611 55.9294 49.033 56.6146 47.705 57.2997C46.6846 57.8261 45.6643 58.3525 44.6546 58.8975C42.7101 59.947 41.5943 61.5685 41.5903 63.8301C41.586 65.7808 41.5871 67.7315 41.5881 69.6821C41.59 73.2119 41.5919 76.7416 41.5622 80.2714C41.5542 81.2045 41.9395 81.6159 42.7482 81.8708C44.7569 82.5049 46.6714 82.3745 48.5256 81.337C51.4254 79.7115 54.3321 78.1 57.2388 76.4884C57.8202 76.1661 58.4015 75.8438 58.9828 75.5214C62.6812 73.4685 63.1669 72.4832 62.5769 68.1065C61.7391 68.5839 60.9034 69.0617 60.0689 69.539C57.3115 71.1157 54.5665 72.6854 51.7966 74.209C51.4937 74.3749 51.0811 74.345 50.6691 74.3152C50.4779 74.3014 50.2869 74.2876 50.1069 74.2933C50.2067 74.145 50.2959 73.9789 50.3851 73.8129C50.5796 73.451 50.7742 73.0888 51.0782 72.9086C52.3404 72.1618 53.6183 71.4401 54.8962 70.7184C56.7877 69.6502 58.6792 68.5819 60.52 67.4322C61.3989 66.8824 62.2277 65.8268 62.4986 64.8455C62.7342 63.9933 62.6837 63.0636 62.6298 62.073C62.6057 61.6289 62.5809 61.1726 62.5809 60.7056C61.6635 61.2278 60.7576 61.7453 59.8595 62.2584C57.3098 63.7151 54.8234 65.1356 52.3184 66.5231C52.1809 66.5993 52.0325 66.7066 51.8784 66.8182C51.3012 67.2358 50.6427 67.7123 50.1691 66.8302C49.7235 65.9965 50.4564 65.6892 51.106 65.4168C51.2929 65.3384 51.4729 65.2629 51.616 65.1786C53.3596 64.149 55.1227 63.15 56.886 62.1509C58.1161 61.454 59.3464 60.7569 60.5701 60.0494C63.4899 58.3597 63.5662 54.2479 60.6343 52.5421C56.7047 50.2575 52.7139 48.0764 48.7243 45.896C48.5578 45.8049 48.3912 45.7139 48.2246 45.6228C46.1516 44.489 44.0004 44.485 41.9234 45.6188C38.1166 47.6978 34.3218 49.7989 30.5592 51.9541C28.7752 52.9756 27.545 54.5489 27.4989 56.6339C27.3965 61.2635 27.3765 65.9011 27.5129 70.5286C27.5932 73.1936 30.1779 75.708 32.887 76.1154C32.887 74.5587 32.8865 73.0026 32.8859 71.4471C32.8847 67.8193 32.8834 64.1942 32.889 60.5691C32.895 57.9142 34.0409 55.8272 36.3105 54.4887C38.9273 52.9455 41.6244 51.5327 44.3235 50.132C44.5805 49.9994 44.9334 50.0503 45.2871 50.1012C45.4526 50.1251 45.6183 50.149 45.7744 50.1541C45.6918 50.2957 45.6203 50.4566 45.5488 50.6175C45.3943 50.9651 45.2398 51.3129 44.9737 51.4665C43.4799 52.3241 41.964 53.1411 40.4479 53.9583C39.4628 54.4892 38.4777 55.0201 37.4985 55.5623C35.6122 56.6078 34.4884 58.2313 34.4623 60.3865C34.3961 65.7666 34.4282 71.1487 34.4623 76.5288C34.4643 76.8981 34.6931 77.4318 34.9881 77.6104C36.1189 78.2934 37.2796 78.9279 38.5535 79.6242Z" fill="url(#paint2_linear_105_1709)"/>
<path d="M40.0617 80.5319C38.2235 79.5164 36.6442 78.6836 35.1191 77.7625C34.8241 77.5839 34.5953 77.0501 34.5933 76.6809C34.5592 71.3008 34.5271 65.9187 34.5933 60.5386C34.6194 58.3834 35.7432 56.7599 37.6295 55.7144C40.1159 54.3377 42.6404 53.0333 45.1047 51.6186C45.494 51.3938 45.6445 50.7537 45.9053 50.3062C45.4157 50.2901 44.8317 50.0894 44.4545 50.2841C41.7554 51.6848 39.0583 53.0976 36.4415 54.6408C34.1719 55.9793 33.026 58.0663 33.02 60.7212C33.012 65.9006 33.018 71.0801 33.018 76.2675C30.3089 75.8601 27.7242 73.3457 27.6439 70.6807C27.5075 66.0532 27.5275 61.4155 27.6299 56.786C27.676 54.701 28.9062 53.1277 30.6902 52.1062C34.4528 49.951 38.2476 47.8499 42.0544 45.7709C44.1314 44.6371 46.2826 44.6411 48.3556 45.7749C52.5116 48.0466 56.6716 50.3142 60.7653 52.6942C63.6972 54.3999 63.6209 58.5118 60.7011 60.2015C57.7231 61.9233 54.707 63.5828 51.747 65.3307C51.1068 65.708 49.7262 65.9087 50.3001 66.9823C50.9001 68.1 51.7972 67.0365 52.4494 66.6752C55.8368 64.7989 59.19 62.8624 62.7119 60.8577C62.7119 62.3667 62.9707 63.7634 62.6296 64.9976C62.3587 65.9789 61.5299 67.0344 60.6509 67.5843C57.5666 69.5108 54.3397 71.2085 51.2092 73.0607C50.7657 73.3236 50.555 73.9738 50.2379 74.4454C50.8058 74.4273 51.4841 74.6039 51.9276 74.3611C55.5357 72.3764 59.1017 70.3135 62.7079 68.2586C63.2978 72.6353 62.8122 73.6206 59.1138 75.6735C55.626 77.608 52.1363 79.5385 48.6566 81.4891C46.8024 82.5266 44.8879 82.657 42.8792 82.0229C42.0704 81.768 41.6851 81.3566 41.6932 80.4235C41.7393 74.9431 41.7092 69.4626 41.7213 63.9822C41.7253 61.7206 42.841 60.0991 44.7856 59.0496C47.1094 57.7954 49.4894 56.6395 51.7972 55.3552C52.2386 55.1083 52.4534 54.4581 52.7724 53.9946C52.2005 54.0066 51.5383 53.8361 51.0707 54.0628C48.8252 55.1424 46.6478 56.3585 44.4183 57.4743C41.4865 58.9412 40.0637 61.2992 40.0657 64.5481C40.0697 69.0813 40.0657 73.6166 40.0657 78.1498C40.0657 78.8422 40.0657 79.5345 40.0657 80.5379L40.0617 80.5319Z" fill="white" fill-opacity="0.3"/>
</g>
<defs>
<filter id="filter0_d_105_1709" x="0.348389" y="0.893387" width="86.021" height="105.236" filterUnits="userSpaceOnUse" color-interpolation-filters="sRGB">
<feFlood flood-opacity="0" result="BackgroundImageFix"/>
<feColorMatrix in="SourceAlpha" type="matrix" values="0 0 0 0 0 0 0 0 0 0 0 0 0 0 0 0 0 0 127 0" result="hardAlpha"/>
<feOffset dy="4"/>
<feGaussianBlur stdDeviation="7"/>
<feComposite in2="hardAlpha" operator="out"/>
<feColorMatrix type="matrix" values="0 0 0 0 0.996078 0 0 0 0 0.72549 0 0 0 0 0.407843 0 0 0 0.26 0"/>
<feBlend mode="normal" in2="BackgroundImageFix" result="effect1_dropShadow_105_1709"/>
<feBlend mode="normal" in="SourceGraphic" in2="effect1_dropShadow_105_1709" result="shape"/>
</filter>
<filter id="filter1_d_105_1709" x="20.937" y="18.3028" width="24.9569" height="38.4363" filterUnits="userSpaceOnUse" color-interpolation-filters="sRGB">
<feFlood flood-opacity="0" result="BackgroundImageFix"/>
<feColorMatrix in="SourceAlpha" type="matrix" values="0 0 0 0 0 0 0 0 0 0 0 0 0 0 0 0 0 0 127 0" result="hardAlpha"/>
<feOffset dy="4"/>
<feGaussianBlur stdDeviation="2"/>
<feComposite in2="hardAlpha" operator="out"/>
<feColorMatrix type="matrix" values="0 0 0 0 0.635294 0 0 0 0 0.905882 0 0 0 0 0.984314 0 0 0 0.4 0"/>
<feBlend mode="normal" in2="BackgroundImageFix" result="effect1_dropShadow_105_1709"/>
<feBlend mode="normal" in="SourceGraphic" in2="effect1_dropShadow_105_1709" result="shape"/>
</filter>
<filter id="filter2_d_105_1709" x="10.3484" y="32.7797" width="19.1917" height="37.0036" filterUnits="userSpaceOnUse" color-interpolation-filters="sRGB">
<feFlood flood-opacity="0" result="BackgroundImageFix"/>
<feColorMatrix in="SourceAlpha" type="matrix" values="0 0 0 0 0 0 0 0 0 0 0 0 0 0 0 0 0 0 127 0" result="hardAlpha"/>
<feOffset dy="4"/>
<feGaussianBlur stdDeviation="2"/>
<feComposite in2="hardAlpha" operator="out"/>
<feColorMatrix type="matrix" values="0 0 0 0 0.6 0 0 0 0 0.545098 0 0 0 0 0.980392 0 0 0 0.45 0"/>
<feBlend mode="normal" in2="BackgroundImageFix" result="effect1_dropShadow_105_1709"/>
<feBlend mode="normal" in="SourceGraphic" in2="effect1_dropShadow_105_1709" result="shape"/>
</filter>
<linearGradient id="paint0_linear_105_1709" x1="29.0192" y1="20.3695" x2="46.7954" y2="37.5197" gradientUnits="userSpaceOnUse">
<stop stop-color="#BAECFB"/>
<stop offset="1" stop-color="#46D1F7"/>
</linearGradient>
<linearGradient id="paint1_linear_105_1709" x1="19.9442" y1="32.7797" x2="19.9442" y2="61.7832" gradientUnits="userSpaceOnUse">
<stop stop-color="#A99EFF"/>
<stop offset="1" stop-color="#8271F2"/>
</linearGradient>
<linearGradient id="paint2_linear_105_1709" x1="47.422" y1="10.8934" x2="47.422" y2="88.1297" gradientUnits="userSpaceOnUse">
<stop stop-color="#FBD4A4"/>
<stop offset="1" stop-color="#FEAA46"/>
</linearGradient>
</defs>
</svg>
