<svg width="19" height="20" viewBox="0 0 19 20" fill="none" xmlns="http://www.w3.org/2000/svg">
<path fill-rule="evenodd" clip-rule="evenodd" d="M13.0641 18.4355C13.5659 18.7816 14.2041 19.1512 14.9511 19.4356C16.4003 19.9895 17.4833 20.0226 17.9842 19.9921C19.1009 19.9295 19.2512 19.2173 18.6518 18.332C17.9678 17.3232 17.3089 16.1814 17.3736 14.9178C18.4357 13.3381 19.0022 11.4737 18.9999 9.56603C18.9999 4.28297 14.7465 0 9.49987 0C4.25329 0 -0.00012207 4.28297 -0.00012207 9.56603C-0.00012207 14.8482 4.25329 19.1312 9.49987 19.1312C10.7591 19.1312 11.9621 18.8842 13.0641 18.4355ZM9.49987 1.73841C8.33593 1.73931 7.18706 2.00343 6.13805 2.51126C5.08904 3.01909 4.16669 3.75766 3.43908 4.67246C2.71147 5.58726 2.19718 6.65493 1.93418 7.79664C1.67118 8.93836 1.66618 10.125 1.91955 11.2689C2.17292 12.4128 2.6782 13.4849 3.39807 14.4058C4.11794 15.3268 5.03404 16.0732 6.07873 16.59C7.12342 17.1068 8.27003 17.3807 9.43393 17.3916C10.5978 17.4024 11.7493 17.1499 12.8033 16.6527C12.9466 16.5848 13.1057 16.5579 13.2632 16.5749C13.4207 16.5919 13.5705 16.6522 13.6963 16.7492C14.148 17.098 14.7888 17.5145 15.5635 17.8102C15.9003 17.9389 16.2077 18.032 16.4832 18.0981C16.1956 17.5702 15.9046 16.9414 15.7716 16.3501C15.6334 15.7396 15.4261 14.6769 15.8286 14.1099C16.7703 12.7847 17.2753 11.1955 17.2726 9.56603C17.2726 7.49024 16.4537 5.49948 14.996 4.03168C13.5384 2.56388 11.5613 1.73841 9.49987 1.73841Z" fill="white"/>
</svg>
