<svg width="24" height="26" viewBox="0 0 24 26" fill="none" xmlns="http://www.w3.org/2000/svg">
<path d="M18.9649 20.8686C16.1881 20.8686 13.9298 18.6104 13.9298 15.8335V3.06328L2.60088 7.18198V16.5347C3.36263 16.0809 4.23177 15.8388 5.11842 15.8335C7.89527 15.8335 10.1535 18.0918 10.1535 20.8686C10.1535 23.6455 7.89527 25.9037 5.11842 25.9037C2.34157 25.9037 0.083334 23.6455 0.083334 20.8686V6.30084C0.083334 6.04262 0.162827 5.79066 0.311012 5.57919C0.4592 5.36772 0.668894 5.207 0.911608 5.11886L14.7581 0.0837696C14.9483 0.0142448 15.1524 -0.00832487 15.3532 0.0179803C15.554 0.0442855 15.7454 0.118687 15.9113 0.234859C16.0772 0.351031 16.2125 0.505537 16.3058 0.685238C16.3992 0.86494 16.4477 1.06452 16.4474 1.26701V11.5008C17.209 11.0466 18.0781 10.8041 18.9649 10.7984C21.7418 10.7984 24 13.0567 24 15.8335C24 18.6104 21.7418 20.8686 18.9649 20.8686Z" fill="#8D96A5"/>
</svg>
