<svg width="18" height="20" viewBox="0 0 18 20" fill="none" xmlns="http://www.w3.org/2000/svg">
<path d="M14.7167 6.88911C14.7167 5.39352 14.1597 3.9592 13.1682 2.90166C12.1768 1.84412 10.8321 1.25 9.43001 1.25C8.02789 1.25 6.68321 1.84412 5.69177 2.90166C4.70032 3.9592 4.14334 5.39352 4.14334 6.88911C4.14334 13.4681 1.5 15.3478 1.5 15.3478H17.36C17.36 15.3478 14.7167 13.4681 14.7167 6.88911Z" stroke="#464455" stroke-width="1.05733" stroke-linecap="round" stroke-linejoin="round"/>
<path d="M10.9539 17.9912C10.799 18.2583 10.5767 18.48 10.3091 18.634C10.0416 18.7881 9.73834 18.8692 9.4296 18.8692C9.12085 18.8692 8.81758 18.7881 8.55007 18.634C8.28256 18.48 8.06017 18.2583 7.90527 17.9912" stroke="#464455" stroke-width="1.05733" stroke-linecap="round" stroke-linejoin="round"/>
</svg>
