<svg width="36" height="41" viewBox="0 0 36 41" fill="none" xmlns="http://www.w3.org/2000/svg">
<g filter="url(#filter0_d_701_14159)">
<path d="M18.4831 1.81727L18.4746 2.25883L18.9117 2.32178C23.1866 2.93741 27.2979 7.80171 26.6631 13.257C26.4679 14.2596 26.6845 15.0537 27.121 15.7214C27.5334 16.3523 28.1399 16.8625 28.6905 17.3258L28.7192 17.35C28.7193 17.35 28.7193 17.3501 28.7194 17.3501C29.8202 18.2772 30.744 19.0844 30.744 20.5433C30.744 21.6022 30.4367 22.4082 29.9281 23.0212C29.4141 23.6408 28.665 24.098 27.7291 24.399L27.7162 24.4031L27.704 24.4078L27.7039 24.4078L27.7038 24.4079L27.7036 24.408L27.7031 24.4081L27.6973 24.4103L27.6697 24.4204C27.6443 24.4295 27.6048 24.4435 27.5514 24.4616C27.4446 24.4978 27.2822 24.5504 27.0657 24.6141C26.6325 24.7415 25.9826 24.9129 25.1274 25.085C23.4171 25.429 20.8852 25.7753 17.6222 25.7753C14.3598 25.7753 11.8279 25.429 10.1174 25.085C9.2621 24.9129 8.6121 24.7415 8.17883 24.6141C7.96219 24.5504 7.79974 24.4977 7.69291 24.4616C7.63949 24.4435 7.59998 24.4295 7.57455 24.4203L7.547 24.4103L7.54118 24.4081L7.5407 24.4079L7.54047 24.4078L7.54032 24.4078L7.54028 24.4078L7.5281 24.4031L7.51526 24.399C6.57367 24.0962 5.82614 23.6533 5.31439 23.0436C4.80907 22.4415 4.50035 21.6375 4.50035 20.5433H4.5004L4.5003 20.5365C4.48078 19.0983 5.40079 18.2946 6.50887 17.3608L6.53606 17.3379C7.0899 16.8722 7.70064 16.3586 8.1166 15.7252C8.55617 15.0559 8.7767 14.2598 8.58122 13.257C7.94781 7.80168 12.0578 2.93868 16.3328 2.32176L16.7808 2.25711L16.7609 1.80489C16.7558 1.69047 16.7736 1.5762 16.8132 1.46874L16.3441 1.29579L16.8132 1.46874C16.8529 1.36128 16.9135 1.26279 16.9916 1.17902C17.0697 1.09525 17.1637 1.02788 17.2681 0.980849C17.3725 0.933814 17.4853 0.908055 17.5998 0.905077C17.7143 0.902099 17.8282 0.92196 17.9349 0.963503C18.0417 1.00505 18.1391 1.06744 18.2214 1.14703C18.3037 1.22663 18.3694 1.32183 18.4146 1.42708L18.8688 1.23225L18.4146 1.42708C18.4589 1.53049 18.4826 1.64155 18.4843 1.75402L18.4831 1.81727ZM12.7189 28.8777C12.7512 28.6514 12.8722 28.4471 13.0551 28.3099C13.1457 28.242 13.2487 28.1926 13.3584 28.1645C13.4681 28.1364 13.5822 28.1301 13.6943 28.1462L13.765 27.6512L13.6943 28.1462C13.8064 28.1622 13.9142 28.2001 14.0117 28.2578C14.1091 28.3155 14.1942 28.3918 14.2621 28.4824C14.6576 29.0097 15.1705 29.4377 15.7601 29.7325C16.3497 30.0273 16.9998 30.1808 17.6589 30.1808C18.3181 30.1808 18.9682 30.0273 19.5578 29.7325C20.1474 29.4377 20.6602 29.0097 21.0557 28.4824C21.1929 28.2994 21.3972 28.1785 21.6236 28.1462C21.8499 28.1138 22.0799 28.1727 22.2628 28.3099C22.4457 28.4471 22.5667 28.6514 22.599 28.8777C22.6313 29.1041 22.5724 29.3341 22.4352 29.517C20.0471 32.7007 15.2708 32.7007 12.8826 29.517C12.7454 29.334 12.6865 29.1041 12.7189 28.8777Z" fill="url(#paint0_linear_701_14159)"/>
<path d="M18.4831 1.81727L18.4746 2.25883L18.9117 2.32178C23.1866 2.93741 27.2979 7.80171 26.6631 13.257C26.4679 14.2596 26.6845 15.0537 27.121 15.7214C27.5334 16.3523 28.1399 16.8625 28.6905 17.3258L28.7192 17.35C28.7193 17.35 28.7193 17.3501 28.7194 17.3501C29.8202 18.2772 30.744 19.0844 30.744 20.5433C30.744 21.6022 30.4367 22.4082 29.9281 23.0212C29.4141 23.6408 28.665 24.098 27.7291 24.399L27.7162 24.4031L27.704 24.4078L27.7039 24.4078L27.7038 24.4079L27.7036 24.408L27.7031 24.4081L27.6973 24.4103L27.6697 24.4204C27.6443 24.4295 27.6048 24.4435 27.5514 24.4616C27.4446 24.4978 27.2822 24.5504 27.0657 24.6141C26.6325 24.7415 25.9826 24.9129 25.1274 25.085C23.4171 25.429 20.8852 25.7753 17.6222 25.7753C14.3598 25.7753 11.8279 25.429 10.1174 25.085C9.2621 24.9129 8.6121 24.7415 8.17883 24.6141C7.96219 24.5504 7.79974 24.4977 7.69291 24.4616C7.63949 24.4435 7.59998 24.4295 7.57455 24.4203L7.547 24.4103L7.54118 24.4081L7.5407 24.4079L7.54047 24.4078L7.54032 24.4078L7.54028 24.4078L7.5281 24.4031L7.51526 24.399C6.57367 24.0962 5.82614 23.6533 5.31439 23.0436C4.80907 22.4415 4.50035 21.6375 4.50035 20.5433H4.5004L4.5003 20.5365C4.48078 19.0983 5.40079 18.2946 6.50887 17.3608L6.53606 17.3379C7.0899 16.8722 7.70064 16.3586 8.1166 15.7252C8.55617 15.0559 8.7767 14.2598 8.58122 13.257C7.94781 7.80168 12.0578 2.93868 16.3328 2.32176L16.7808 2.25711L16.7609 1.80489C16.7558 1.69047 16.7736 1.5762 16.8132 1.46874L16.3441 1.29579L16.8132 1.46874C16.8529 1.36128 16.9135 1.26279 16.9916 1.17902C17.0697 1.09525 17.1637 1.02788 17.2681 0.980849C17.3725 0.933814 17.4853 0.908055 17.5998 0.905077C17.7143 0.902099 17.8282 0.92196 17.9349 0.963503C18.0417 1.00505 18.1391 1.06744 18.2214 1.14703C18.3037 1.22663 18.3694 1.32183 18.4146 1.42708L18.8688 1.23225L18.4146 1.42708C18.4589 1.53049 18.4826 1.64155 18.4843 1.75402L18.4831 1.81727ZM12.7189 28.8777C12.7512 28.6514 12.8722 28.4471 13.0551 28.3099C13.1457 28.242 13.2487 28.1926 13.3584 28.1645C13.4681 28.1364 13.5822 28.1301 13.6943 28.1462L13.765 27.6512L13.6943 28.1462C13.8064 28.1622 13.9142 28.2001 14.0117 28.2578C14.1091 28.3155 14.1942 28.3918 14.2621 28.4824C14.6576 29.0097 15.1705 29.4377 15.7601 29.7325C16.3497 30.0273 16.9998 30.1808 17.6589 30.1808C18.3181 30.1808 18.9682 30.0273 19.5578 29.7325C20.1474 29.4377 20.6602 29.0097 21.0557 28.4824C21.1929 28.2994 21.3972 28.1785 21.6236 28.1462C21.8499 28.1138 22.0799 28.1727 22.2628 28.3099C22.4457 28.4471 22.5667 28.6514 22.599 28.8777C22.6313 29.1041 22.5724 29.3341 22.4352 29.517C20.0471 32.7007 15.2708 32.7007 12.8826 29.517C12.7454 29.334 12.6865 29.1041 12.7189 28.8777Z" stroke="url(#paint1_linear_701_14159)"/>
<path d="M18.4831 1.81727L18.4746 2.25883L18.9117 2.32178C23.1866 2.93741 27.2979 7.80171 26.6631 13.257C26.4679 14.2596 26.6845 15.0537 27.121 15.7214C27.5334 16.3523 28.1399 16.8625 28.6905 17.3258L28.7192 17.35C28.7193 17.35 28.7193 17.3501 28.7194 17.3501C29.8202 18.2772 30.744 19.0844 30.744 20.5433C30.744 21.6022 30.4367 22.4082 29.9281 23.0212C29.4141 23.6408 28.665 24.098 27.7291 24.399L27.7162 24.4031L27.704 24.4078L27.7039 24.4078L27.7038 24.4079L27.7036 24.408L27.7031 24.4081L27.6973 24.4103L27.6697 24.4204C27.6443 24.4295 27.6048 24.4435 27.5514 24.4616C27.4446 24.4978 27.2822 24.5504 27.0657 24.6141C26.6325 24.7415 25.9826 24.9129 25.1274 25.085C23.4171 25.429 20.8852 25.7753 17.6222 25.7753C14.3598 25.7753 11.8279 25.429 10.1174 25.085C9.2621 24.9129 8.6121 24.7415 8.17883 24.6141C7.96219 24.5504 7.79974 24.4977 7.69291 24.4616C7.63949 24.4435 7.59998 24.4295 7.57455 24.4203L7.547 24.4103L7.54118 24.4081L7.5407 24.4079L7.54047 24.4078L7.54032 24.4078L7.54028 24.4078L7.5281 24.4031L7.51526 24.399C6.57367 24.0962 5.82614 23.6533 5.31439 23.0436C4.80907 22.4415 4.50035 21.6375 4.50035 20.5433H4.5004L4.5003 20.5365C4.48078 19.0983 5.40079 18.2946 6.50887 17.3608L6.53606 17.3379C7.0899 16.8722 7.70064 16.3586 8.1166 15.7252C8.55617 15.0559 8.7767 14.2598 8.58122 13.257C7.94781 7.80168 12.0578 2.93868 16.3328 2.32176L16.7808 2.25711L16.7609 1.80489C16.7558 1.69047 16.7736 1.5762 16.8132 1.46874L16.3441 1.29579L16.8132 1.46874C16.8529 1.36128 16.9135 1.26279 16.9916 1.17902C17.0697 1.09525 17.1637 1.02788 17.2681 0.980849C17.3725 0.933814 17.4853 0.908055 17.5998 0.905077C17.7143 0.902099 17.8282 0.92196 17.9349 0.963503C18.0417 1.00505 18.1391 1.06744 18.2214 1.14703C18.3037 1.22663 18.3694 1.32183 18.4146 1.42708L18.8688 1.23225L18.4146 1.42708C18.4589 1.53049 18.4826 1.64155 18.4843 1.75402L18.4831 1.81727ZM12.7189 28.8777C12.7512 28.6514 12.8722 28.4471 13.0551 28.3099C13.1457 28.242 13.2487 28.1926 13.3584 28.1645C13.4681 28.1364 13.5822 28.1301 13.6943 28.1462L13.765 27.6512L13.6943 28.1462C13.8064 28.1622 13.9142 28.2001 14.0117 28.2578C14.1091 28.3155 14.1942 28.3918 14.2621 28.4824C14.6576 29.0097 15.1705 29.4377 15.7601 29.7325C16.3497 30.0273 16.9998 30.1808 17.6589 30.1808C18.3181 30.1808 18.9682 30.0273 19.5578 29.7325C20.1474 29.4377 20.6602 29.0097 21.0557 28.4824C21.1929 28.2994 21.3972 28.1785 21.6236 28.1462C21.8499 28.1138 22.0799 28.1727 22.2628 28.3099C22.4457 28.4471 22.5667 28.6514 22.599 28.8777C22.6313 29.1041 22.5724 29.3341 22.4352 29.517C20.0471 32.7007 15.2708 32.7007 12.8826 29.517C12.7454 29.334 12.6865 29.1041 12.7189 28.8777Z" stroke="url(#paint2_linear_701_14159)" stroke-opacity="0.2"/>
</g>
<defs>
<filter id="filter0_d_701_14159" x="0" y="0.404785" width="35.244" height="40" filterUnits="userSpaceOnUse" color-interpolation-filters="sRGB">
<feFlood flood-opacity="0" result="BackgroundImageFix"/>
<feColorMatrix in="SourceAlpha" type="matrix" values="0 0 0 0 0 0 0 0 0 0 0 0 0 0 0 0 0 0 127 0" result="hardAlpha"/>
<feOffset dy="4"/>
<feGaussianBlur stdDeviation="2"/>
<feComposite in2="hardAlpha" operator="out"/>
<feColorMatrix type="matrix" values="0 0 0 0 0.992157 0 0 0 0 0.729412 0 0 0 0 0.411765 0 0 0 0.33 0"/>
<feBlend mode="normal" in2="BackgroundImageFix" result="effect1_dropShadow_701_14159"/>
<feBlend mode="normal" in="SourceGraphic" in2="effect1_dropShadow_701_14159" result="shape"/>
</filter>
<linearGradient id="paint0_linear_701_14159" x1="17.622" y1="0.404785" x2="17.622" y2="32.4048" gradientUnits="userSpaceOnUse">
<stop stop-color="#FBD4A4"/>
<stop offset="1" stop-color="#FEAA46"/>
</linearGradient>
<linearGradient id="paint1_linear_701_14159" x1="24.7735" y1="33.6048" x2="7.50615" y2="0.0563511" gradientUnits="userSpaceOnUse">
<stop stop-opacity="0.03"/>
<stop offset="1" stop-opacity="0"/>
</linearGradient>
<linearGradient id="paint2_linear_701_14159" x1="10.811" y1="2.00478" x2="26.9173" y2="28.6886" gradientUnits="userSpaceOnUse">
<stop stop-color="white" stop-opacity="0.57"/>
<stop offset="1" stop-color="white" stop-opacity="0"/>
</linearGradient>
</defs>
</svg>
