<svg width="23" height="24" viewBox="0 0 23 24" fill="none" xmlns="http://www.w3.org/2000/svg">
<path fill-rule="evenodd" clip-rule="evenodd" d="M11.5332 0.00737932C11.7395 -0.00245977 11.9458 -0.00245977 12.1521 0.00737932C12.9479 0.0478289 13.6819 0.280687 14.4984 0.663319C15.2942 1.03502 16.2182 1.5707 17.3886 2.25179L17.4538 2.29005C18.6242 2.97004 19.5492 3.50791 20.2658 4.01517C21.0031 4.53664 21.5687 5.05921 22.003 5.73373C22.1138 5.90865 22.218 6.08903 22.3114 6.27379C22.6751 6.98767 22.8423 7.74418 22.9216 8.64719C22.9997 9.52725 22.9997 10.6019 22.9997 11.9619V12.0384C22.9997 13.3984 22.9997 14.473 22.9216 15.3531C22.8423 16.2561 22.6751 17.0115 22.3114 17.7254C22.218 17.9112 22.1138 18.0916 22.0019 18.2665C21.4754 19.0876 20.7468 19.6877 19.7544 20.3306C19.1258 20.7383 18.3593 21.1833 17.4375 21.719L17.3886 21.7485C16.2182 22.4285 15.2942 22.9664 14.4984 23.338C13.6819 23.7196 12.9479 23.9524 12.1521 23.9918C11.9458 24.0027 11.7395 24.0027 11.5332 23.9918C10.7363 23.9524 10.0034 23.7185 9.18691 23.338C8.39106 22.9664 7.46601 22.4285 6.29667 21.7485L6.24781 21.7201C5.33578 21.1898 4.57468 20.7471 3.94929 20.3426C2.94824 19.6943 2.2121 19.093 1.68334 18.2655C1.5714 18.0911 1.46813 17.9112 1.37391 17.7265C1.0091 17.0115 0.84298 16.2561 0.76372 15.3531C0.685547 14.473 0.685547 13.3984 0.685547 12.0384V11.9619C0.685547 10.6019 0.685547 9.52725 0.76372 8.64719C0.84298 7.74418 1.0091 6.98767 1.37391 6.27488C1.46809 6.08945 1.57136 5.90884 1.68334 5.73373C2.11547 5.05921 2.68223 4.53664 3.41945 4.01517C4.13604 3.50791 5.06109 2.97004 6.23152 2.29005L6.29667 2.25179C7.4671 1.5707 8.39106 1.03392 9.18691 0.662225C10.0034 0.280687 10.7363 0.047829 11.5321 0.0084726L11.5332 0.00737932ZM19.0172 18.8569C18.6634 18.113 18.1078 17.4851 17.4146 17.0456C16.7215 16.6061 15.919 16.373 15.0999 16.3731H8.58541C7.76609 16.3728 6.96339 16.6058 6.27003 17.0453C5.57666 17.4848 5.02091 18.1129 4.66697 18.8569L4.82983 18.9629C5.4183 19.3445 6.14683 19.7676 7.07732 20.3087C8.28792 21.0127 9.15108 21.5124 9.87202 21.8502C10.5799 22.1803 11.1 22.329 11.6135 22.3541C11.7656 22.3618 11.9186 22.3618 12.0717 22.3541C12.5853 22.329 13.1054 22.1814 13.8133 21.8502C14.5353 21.5124 15.3974 21.0127 16.6069 20.3087C17.5482 19.7621 18.2811 19.3357 18.8728 18.952L19.0172 18.8569ZM11.8426 3.52759C11.1654 3.52759 10.4947 3.6619 9.86904 3.92287C9.24333 4.18384 8.67479 4.56634 8.19589 5.04854C7.717 5.53074 7.33711 6.1032 7.07794 6.73322C6.81876 7.36325 6.68536 8.03851 6.68536 8.72044C6.68536 9.40238 6.81876 10.0776 7.07794 10.7077C7.33711 11.3377 7.717 11.9101 8.19589 12.3923C8.67479 12.8745 9.24333 13.257 9.86904 13.518C10.4947 13.779 11.1654 13.9133 11.8426 13.9133C13.2104 13.9133 14.5222 13.3662 15.4894 12.3923C16.4566 11.4185 16.9999 10.0977 16.9999 8.72044C16.9999 7.34321 16.4566 6.02239 15.4894 5.04854C14.5222 4.07469 13.2104 3.52759 11.8426 3.52759Z" fill="#D8E6FD"/>
</svg>
