<svg width="21" height="20" viewBox="0 0 21 20" fill="none" xmlns="http://www.w3.org/2000/svg">
<path d="M0.826486 8.32145C0.714031 8.322 0.60266 8.29947 0.49926 8.25525C0.39586 8.21104 0.30263 8.14608 0.225337 8.0644C0.148044 7.98272 0.0883301 7.88604 0.0498893 7.78036C0.0114485 7.67468 -0.00490197 7.56223 0.00184902 7.44998C0.357296 2.10238 2.10275 0.35693 7.45035 0.00148281C7.5626 -0.00526818 7.67505 0.0110823 7.78073 0.0495231C7.88641 0.0879639 7.98308 0.147677 8.06477 0.224971C8.14645 0.302264 8.21141 0.395494 8.25562 0.498894C8.29984 0.602294 8.32236 0.713665 8.32182 0.82612C8.32182 1.27524 7.96637 1.64323 7.51893 1.67334C6.65164 1.73188 5.91649 1.8289 5.29006 1.96857C4.15598 2.21947 3.48356 2.58997 3.03695 3.03658C2.59034 3.48319 2.22068 4.15561 1.96894 5.2897C1.82927 5.91696 1.73309 6.65127 1.6737 7.51773C1.66037 7.73395 1.56551 7.93706 1.40827 8.08608C1.25103 8.23509 1.04311 8.31975 0.826486 8.32145ZM0.826486 11.6785C0.714031 11.678 0.60266 11.7005 0.49926 11.7447C0.39586 11.789 0.30263 11.8539 0.225337 11.9356C0.148044 12.0173 0.0883301 12.114 0.0498893 12.2196C0.0114485 12.3253 -0.00490197 12.4378 0.00184902 12.55C0.357296 17.8976 2.10275 19.6431 7.45035 19.9985C7.5626 20.0053 7.67505 19.9889 7.78073 19.9505C7.88641 19.912 7.98308 19.8523 8.06477 19.775C8.14645 19.6977 8.21141 19.6045 8.25562 19.5011C8.29984 19.3977 8.32236 19.2863 8.32182 19.1739C8.32182 18.7248 7.96637 18.3568 7.51893 18.3267C6.65164 18.2681 5.91649 18.1711 5.29006 18.0323C4.15598 17.7797 3.48356 17.41 3.03695 16.9634C2.59034 16.5168 2.22068 15.8444 1.96894 14.7103C1.82927 14.0839 1.73309 13.3487 1.6737 12.4823C1.66037 12.2661 1.56551 12.0629 1.40827 11.9139C1.25103 11.7649 1.04311 11.6811 0.826486 11.6794V11.6785ZM19.1751 11.6785C18.7251 11.6785 18.358 12.034 18.327 12.4823C18.2685 13.3487 18.1715 14.0839 18.0326 14.7103C17.7809 15.8444 17.4112 16.5168 16.9646 16.9634C16.518 17.41 15.8448 17.7797 14.7107 18.0323C14.0842 18.1711 13.3499 18.2673 12.4826 18.3267C12.2665 18.3402 12.0635 18.4351 11.9145 18.5923C11.7655 18.7495 11.6817 18.9573 11.6797 19.1739C11.6792 19.2863 11.7017 19.3976 11.7459 19.5009C11.79 19.6042 11.8549 19.6974 11.9365 19.7747C12.0181 19.852 12.1147 19.9117 12.2203 19.9502C12.3258 19.9887 12.4382 20.0051 12.5504 19.9985C17.8988 19.6431 19.6443 17.8976 19.9989 12.55C20.0056 12.4378 19.9893 12.3255 19.9509 12.2198C19.9125 12.1142 19.8529 12.0176 19.7757 11.9359C19.6985 11.8542 19.6053 11.7893 19.502 11.745C19.3987 11.7007 19.2875 11.6781 19.1751 11.6785ZM19.1751 8.32145C19.2875 8.322 19.3989 8.29947 19.5023 8.25525C19.6057 8.21104 19.6989 8.14608 19.7762 8.0644C19.8535 7.98272 19.9132 7.88604 19.9517 7.78036C19.9901 7.67468 20.0065 7.56223 19.9997 7.44998C19.6443 2.10238 17.898 0.35693 12.5504 0.00148281C12.4382 -0.00514934 12.3258 0.0112894 12.2203 0.0497838C12.1147 0.0882781 12.0181 0.148011 11.9365 0.225292C11.8549 0.302573 11.79 0.395762 11.7459 0.499102C11.7017 0.602442 11.6792 0.71374 11.6797 0.82612C11.6797 1.27524 12.0344 1.64323 12.4826 1.67334C13.3499 1.73188 14.0842 1.8289 14.7107 1.96857C15.8448 2.21947 16.5172 2.58997 16.9646 3.03658C17.4112 3.48319 17.7809 4.15561 18.0326 5.2897C18.1723 5.91696 18.2685 6.65127 18.327 7.51773C18.358 7.96601 18.7251 8.32145 19.1751 8.32145Z" fill="#F7F7F7"/>
<path fill-rule="evenodd" clip-rule="evenodd" d="M14.2183 9.89218C14.2183 11.0012 13.7777 12.0649 12.9935 12.8491C12.2093 13.6333 11.1457 14.0739 10.0366 14.0739C8.92752 14.0739 7.86389 13.6333 7.07966 12.8491C6.29543 12.0649 5.85486 11.0012 5.85486 9.89218C5.85486 8.78312 6.29543 7.71948 7.07966 6.93525C7.86389 6.15102 8.92752 5.71045 10.0366 5.71045C11.1457 5.71045 12.2093 6.15102 12.9935 6.93525C13.7777 7.71948 14.2183 8.78312 14.2183 9.89218ZM12.5456 9.89218C12.5456 10.5576 12.2813 11.1958 11.8107 11.6663C11.3402 12.1369 10.702 12.4012 10.0366 12.4012C9.37115 12.4012 8.73297 12.1369 8.26243 11.6663C7.79189 11.1958 7.52755 10.5576 7.52755 9.89218C7.52755 9.22674 7.79189 8.58856 8.26243 8.11802C8.73297 7.64749 9.37115 7.38314 10.0366 7.38314C10.702 7.38314 11.3402 7.64749 11.8107 8.11802C12.2813 8.58856 12.5456 9.22674 12.5456 9.89218Z" fill="#F7F7F7"/>
</svg>
