<svg width="21" height="19" viewBox="0 0 21 19" fill="none" xmlns="http://www.w3.org/2000/svg">
<path fill-rule="evenodd" clip-rule="evenodd" d="M6.07056 1.29953L16.9389 6.19192C17.7178 6.54213 18.3673 6.83398 18.8502 7.10566C19.3203 7.37097 19.8393 7.72225 20.1173 8.28365C20.2983 8.64941 20.3924 9.05198 20.3924 9.46005C20.3924 9.86812 20.2983 10.2707 20.1173 10.6365C19.8393 11.1989 19.3214 11.5502 18.8513 11.8144C18.3684 12.0872 17.7178 12.379 16.9389 12.7292L6.08967 17.611C5.29054 17.9719 4.62513 18.2701 4.09238 18.4558C3.57449 18.6351 2.95684 18.7933 2.3445 18.6224C1.94797 18.5117 1.58265 18.3102 1.27744 18.0339C0.972233 17.7576 0.735507 17.4141 0.585997 17.0305C0.354644 16.4394 0.451218 15.808 0.577507 15.2752C0.708042 14.7255 0.940457 14.0335 1.21744 13.2036L2.29992 9.96999C2.41348 9.63251 2.42091 9.59536 2.42515 9.56777C2.43098 9.52268 2.43098 9.47702 2.42515 9.43193C2.42091 9.40434 2.41454 9.36719 2.30205 9.02971L1.19622 5.6995C0.921354 4.87172 0.692123 4.1819 0.563711 3.63217C0.438483 3.10048 0.344031 2.4701 0.575385 1.88004C0.725408 1.49693 0.962476 1.15396 1.26786 0.878236C1.57323 0.602511 1.93855 0.401587 2.33495 0.291342C2.94623 0.121541 3.56282 0.279668 4.07859 0.457959C4.61134 0.642617 5.27462 0.94083 6.07056 1.29953ZM4.35451 10.5218H9.94415C10.2256 10.5218 10.4955 10.41 10.6946 10.211C10.8936 10.012 11.0054 9.74205 11.0054 9.46058C11.0054 9.17912 10.8936 8.90919 10.6946 8.71016C10.4955 8.51114 10.2256 8.39933 9.94415 8.39933H4.32904C4.32479 8.3866 4.32054 8.37386 4.31631 8.36112L3.22746 5.07972C2.93137 4.18933 2.73398 3.59078 2.62997 3.14612C2.54507 2.78529 2.55569 2.65794 2.55781 2.64096C2.58795 2.57002 2.63319 2.5065 2.69037 2.45482C2.74755 2.40313 2.81531 2.36453 2.88892 2.34169C2.90484 2.34169 3.03431 2.34381 3.38453 2.46479C3.81646 2.61443 4.39166 2.87231 5.24703 3.25755L16.0209 8.10536C16.8593 8.48211 17.4207 8.73575 17.8102 8.95543C18.1254 9.13266 18.2092 9.22605 18.2209 9.23772C18.2532 9.30757 18.2699 9.38362 18.2699 9.46058C18.2699 9.53755 18.2532 9.6136 18.2209 9.68345C18.2103 9.69406 18.1254 9.78745 17.8102 9.96574C17.4207 10.1844 16.8593 10.438 16.0209 10.8147L5.26613 15.6541C4.40758 16.0414 3.83025 16.3004 3.39726 16.45C3.04493 16.5721 2.91651 16.5731 2.90059 16.5742C2.82668 16.5514 2.75865 16.5126 2.70127 16.4608C2.64389 16.4089 2.59855 16.3451 2.56842 16.2738C2.56842 16.2579 2.55569 16.1295 2.64271 15.7676C2.74884 15.3219 2.94835 14.7212 3.24763 13.8287L4.31313 10.6439L4.33223 10.5866L4.35451 10.5218Z" fill="white"/>
</svg>
