<svg width="36" height="41" viewBox="0 0 64 63" fill="none" xmlns="http://www.w3.org/2000/svg">
<g filter="url(#filter0_d_701_14153)">
<path d="M42.6645 15.2765C41.0219 13.8051 39.0926 12.6895 36.9979 12C36.399 12.7504 35.6386 13.3561 34.7733 13.7721C33.908 14.1881 32.9601 14.4037 32 14.403C31.0399 14.4037 30.092 14.1881 29.2267 13.7721C28.3614 13.3561 27.601 12.7504 27.0021 12C24.9074 12.6895 22.978 13.805 21.3355 15.2765C21.8632 16.6241 21.918 18.111 21.4908 19.4938C21.0635 20.8766 20.1796 22.0734 18.9837 22.8885C18.1902 23.4309 17.2847 23.786 16.336 23.93C15.888 26.0882 15.888 28.3152 16.336 30.4734C17.7678 30.6896 19.0837 31.3856 20.0684 32.4473C21.0531 33.509 21.6482 34.8736 21.7562 36.3176C21.8288 37.2743 21.685 38.235 21.3355 39.1285C22.9782 40.5994 24.9075 41.7144 27.0021 42.4034C27.6012 41.6533 28.3617 41.0479 29.2269 40.6322C30.0922 40.2164 31.04 40.001 32 40.002C32.9601 40.0012 33.908 40.2168 34.7733 40.6329C35.6386 41.0489 36.399 41.6546 36.9979 42.405C39.0925 41.7159 41.0218 40.6009 42.6645 39.1301C42.3147 38.2364 42.1708 37.2755 42.2433 36.3185C42.3159 35.3616 42.6031 34.4333 43.0837 33.6026C43.5632 32.7709 44.224 32.0579 45.017 31.5167C45.81 30.9755 46.7147 30.6199 47.664 30.4766C48.112 28.3168 48.112 26.0898 47.664 23.9316C46.7146 23.788 45.8097 23.4323 45.0167 22.8908C44.2237 22.3493 43.563 21.636 43.0837 20.8039C42.6034 19.9734 42.3163 19.0454 42.2437 18.0888C42.1711 17.1322 42.315 16.1699 42.6645 15.2765ZM29.6002 31.3581C29.0472 31.0493 28.5608 30.6341 28.169 30.1365C27.7772 29.6388 27.4877 29.0685 27.3174 28.4585C27.147 27.8485 27.0991 27.2107 27.1763 26.5821C27.2536 25.9534 27.4545 25.3463 27.7675 24.7957C28.0805 24.245 28.4994 23.7618 29 23.3738C29.5007 22.9858 30.0732 22.7008 30.6845 22.5351C31.2958 22.3694 31.9339 22.3264 32.5619 22.4084C33.19 22.4905 33.7956 22.6961 34.3438 23.0133C35.44 23.6476 36.2411 24.6895 36.5724 25.912C36.9037 27.1344 36.7384 28.4382 36.1125 29.5393C35.4866 30.6404 34.4509 31.4494 33.231 31.7901C32.0112 32.1308 30.7061 31.9755 29.6002 31.3581Z" fill="url(#paint0_linear_701_14153)"/>
</g>
<defs>
<filter id="filter0_d_701_14153" x="0" y="0" width="64" height="62.4048" filterUnits="userSpaceOnUse" color-interpolation-filters="sRGB">
<feFlood flood-opacity="0" result="BackgroundImageFix"/>
<feColorMatrix in="SourceAlpha" type="matrix" values="0 0 0 0 0 0 0 0 0 0 0 0 0 0 0 0 0 0 127 0" result="hardAlpha"/>
<feOffset dy="4"/>
<feGaussianBlur stdDeviation="8"/>
<feComposite in2="hardAlpha" operator="out"/>
<feColorMatrix type="matrix" values="0 0 0 0 0.992157 0 0 0 0 0.760784 0 0 0 0 0.482353 0 0 0 0.25 0"/>
<feBlend mode="normal" in2="BackgroundImageFix" result="effect1_dropShadow_701_14153"/>
<feBlend mode="normal" in="SourceGraphic" in2="effect1_dropShadow_701_14153" result="shape"/>
</filter>
<linearGradient id="paint0_linear_701_14153" x1="32" y1="12" x2="32" y2="42.405" gradientUnits="userSpaceOnUse">
<stop stop-color="#FBD4A4"/>
<stop offset="1" stop-color="#FEAA46"/>
</linearGradient>
</defs>
</svg>
