<svg width="24" height="24" viewBox="0 0 24 24" fill="none" xmlns="http://www.w3.org/2000/svg">
<path d="M17.9446 16.6552C22.6783 16.6552 24 14.669 24 11.6905C24 8.712 22.248 6.72165 17.9446 6.72165C15.6017 6.72165 14.789 5.61765 14.0491 4.61297C13.4301 3.77214 12.8615 3 11.4894 3C8.47696 3 7.61627 6.72248 7.61627 11.6913C7.61627 16.6593 8.47696 20.3793 11.4894 20.3793C12.8259 20.3793 13.3159 19.6461 13.8596 18.8301C14.5423 17.8072 15.3112 16.6552 17.9446 16.6552ZM3.90455 4.85214C3.73407 4.71012 3.51478 4.64048 3.2936 4.65811C3.07242 4.67574 2.86693 4.77925 2.7211 4.94648L3.36 5.48276L2.71945 4.94648L2.71862 4.94814L2.71531 4.95145L2.70538 4.96303L2.67062 5.00441C2.4877 5.22285 2.31027 5.44581 2.13848 5.6731C1.82731 6.08524 1.42924 6.65214 1.16359 7.19007C0.441103 8.65738 0 9.79034 0 11.6897C0 13.589 0.441103 14.7219 1.16441 16.1892C1.42924 16.7272 1.82814 17.2941 2.13848 17.7062C2.31056 17.9332 2.48827 18.1559 2.67145 18.3741L2.70621 18.4154L2.71614 18.4279L2.71945 18.4312C2.71945 18.432 2.72028 18.4328 3.36083 17.8966L2.72028 18.4328C2.86613 18.6003 3.07178 18.704 3.29317 18.7216C3.51455 18.7392 3.73402 18.6694 3.90455 18.5272C3.98852 18.4576 4.05775 18.3719 4.10819 18.2752C4.15863 18.1785 4.18925 18.0728 4.19827 17.9641C4.20729 17.8554 4.19452 17.746 4.16071 17.6423C4.1269 17.5386 4.07273 17.4427 4.00138 17.3603L3.99972 17.3594L3.9931 17.3512L3.96414 17.3181L3.8549 17.1857C3.76055 17.0698 3.63062 16.9076 3.48745 16.7181C3.19283 16.3283 2.8709 15.8607 2.67641 15.4659C2.01103 14.117 1.68083 13.2422 1.68083 11.6897C1.68083 10.1379 2.01103 9.26317 2.67641 7.91338C2.8709 7.51862 3.19283 7.05103 3.48745 6.66124C3.64139 6.45763 3.80034 6.25784 3.96414 6.06207L3.9931 6.02814L3.99972 6.01986L4.00138 6.01903C4.07273 5.93656 4.1269 5.84067 4.16071 5.73699C4.19452 5.6333 4.20729 5.52391 4.19827 5.41523C4.18925 5.30655 4.15863 5.20076 4.10819 5.10407C4.05775 5.00737 3.98852 4.92172 3.90455 4.85214Z" fill="#8D96A5"/>
<path d="M4.37799 8.36359C4.4956 8.17544 4.68231 8.04092 4.89802 7.98893C5.11373 7.93694 5.34122 7.97162 5.53164 8.08553C5.62567 8.14087 5.70771 8.21441 5.77296 8.30186C5.83822 8.38931 5.88536 8.48889 5.91164 8.59479C5.93792 8.70068 5.94281 8.81076 5.92602 8.91856C5.90923 9.02637 5.87109 9.12974 5.81385 9.22263L5.81219 9.22511L5.80392 9.23835L5.77081 9.29628C5.74102 9.34594 5.70047 9.41711 5.65495 9.5007C5.56061 9.67615 5.4646 9.87311 5.40916 10.0304C5.19647 10.6361 5.0955 11.0086 5.0955 11.6897C5.0955 12.3708 5.19647 12.7432 5.40999 13.3498C5.46461 13.507 5.56061 13.7032 5.65495 13.8786C5.70273 13.9669 5.7524 14.054 5.80392 14.1401L5.81219 14.1542L5.81385 14.1567C5.87101 14.2496 5.90911 14.3529 5.9259 14.4606C5.94269 14.5684 5.93785 14.6784 5.91165 14.7843C5.88546 14.8901 5.83844 14.9897 5.77333 15.0772C5.70823 15.1647 5.62635 15.2383 5.53247 15.2938C5.13523 15.5305 4.61881 15.4064 4.37799 15.0157L4.3755 15.0124L4.37136 15.0058L4.35895 14.9843C4.29359 14.8761 4.23095 14.7662 4.17109 14.6549C4.0635 14.4563 3.9195 14.1699 3.82185 13.8919C3.57274 13.1835 3.4155 12.619 3.4155 11.6897C3.4155 10.7603 3.57274 10.1959 3.82185 9.48746C3.91913 9.22478 4.03586 8.96973 4.17109 8.72442C4.23129 8.61327 4.29392 8.50345 4.35895 8.39504L4.37136 8.37353L4.3755 8.36691L4.37716 8.36359L5.0955 8.79311L4.37799 8.36359Z" fill="#8D96A5"/>
</svg>
