<svg width="24" height="24" viewBox="0 0 24 24" fill="none" xmlns="http://www.w3.org/2000/svg">
<path fill-rule="evenodd" clip-rule="evenodd" d="M14.8965 20C22.3936 20 24 18.4998 24 11.5C24 4.50025 22.3928 3 14.8965 3C9.87387 3 7.49538 3.6732 6.47165 6.2232C5.1053 5.1403 3.83826 4.61075 2.73757 4.7119C2.09346 4.76281 1.49311 5.06625 1.06087 5.55935C0.642937 6.0345 0.398798 6.6482 0.287901 7.3061C-0.0944443 9.5722 -0.0960999 13.1167 0.283764 15.3802C0.3748 16.1707 0.592455 16.8814 1.00625 17.4143C1.45066 17.9864 2.06888 18.2847 2.77481 18.2992C3.44267 18.3136 4.14861 18.0765 4.85537 17.6897C5.4037 17.3812 5.92485 17.0243 6.41289 16.623C7.40186 19.2996 9.77373 20 14.8965 20ZM5.97675 14.7878C5.25509 15.4313 4.61951 15.8928 4.07661 16.1895C3.5006 16.504 3.08433 16.606 2.80874 16.6C2.57205 16.5949 2.42474 16.5142 2.29977 16.3535C2.15081 16.1614 1.99522 15.7951 1.9257 15.1627L1.92322 15.1372L1.91825 15.1125C1.56736 13.0444 1.56736 9.6793 1.91825 7.5968C1.99191 7.165 2.13343 6.87515 2.28901 6.69835C2.36469 6.61164 2.45627 6.5411 2.55852 6.49079C2.66076 6.44047 2.77166 6.41135 2.88488 6.4051C3.46419 6.3524 4.50447 6.68815 6.00489 8.0269C5.85262 8.99845 5.79303 10.146 5.79303 11.5C5.79303 12.7682 5.84599 13.8562 5.97675 14.7878Z" fill="#8D96A5"/>
</svg>
