<svg width="24" height="24" viewBox="0 0 24 24" fill="none" xmlns="http://www.w3.org/2000/svg">
<path d="M23.3333 6.66675C22.9651 6.66675 22.6667 6.36819 22.6667 6V2.27612L17.1379 7.80469C16.8764 8.05737 16.4607 8.05369 16.2034 7.79663C15.9463 7.53931 15.9426 7.1235 16.1953 6.86206L21.7239 1.33325H18C17.6319 1.33325 17.3333 1.03494 17.3333 0.66675C17.3333 0.298563 17.6318 0 18 0H23.3333C23.7014 0 24 0.298563 24 0.66675V6C24 6.36813 23.7014 6.66675 23.3333 6.66675ZM2.27612 22.6667H6C6.36812 22.6667 6.66675 22.9651 6.66675 23.3332C6.66675 23.7014 6.36819 24 6 24H0.66675C0.298625 24 0 23.7014 0 23.3332V18C0 17.6319 0.298563 17.3333 0.66675 17.3333C1.03494 17.3333 1.33325 17.6318 1.33325 18V21.7239L6.86206 16.1953C7.12356 15.9426 7.53931 15.9463 7.79663 16.2034C8.05369 16.4607 8.05737 16.8765 7.80469 17.1379L2.27612 22.6667Z" fill="#C6CAD2"/>
<path d="M23.3333 24H18C17.6319 24 17.3333 23.7014 17.3333 23.3332C17.3333 22.9651 17.6318 22.6667 18 22.6667H21.7239L16.1953 17.1379C16.1102 17.0557 16.0485 16.9524 16.0166 16.8385C15.9846 16.7246 15.9835 16.6042 16.0134 16.4897C16.0434 16.3752 16.1033 16.2708 16.187 16.1871C16.2707 16.1034 16.3752 16.0434 16.4897 16.0134C16.6042 15.9835 16.7245 15.9846 16.8384 16.0166C16.9524 16.0485 17.0557 16.1102 17.1379 16.1953L22.6667 21.7239V18C22.6667 17.6319 22.9651 17.3333 23.3333 17.3333C23.7014 17.3333 24 17.6318 24 18V23.3332C24 23.7014 23.7014 24 23.3333 24ZM6.86206 7.80469L1.33325 2.27612V6C1.33325 6.36813 1.03494 6.66675 0.66675 6.66675C0.298563 6.66675 0 6.36819 0 6V0.66675C0 0.298624 0.298563 0 0.66675 0H6C6.36812 0 6.66675 0.298563 6.66675 0.66675C6.66675 1.03494 6.36819 1.33325 6 1.33325H2.27612L7.80469 6.86206C8.05737 7.12356 8.05369 7.53931 7.79663 7.79663C7.53931 8.05369 7.1235 8.05737 6.86206 7.80469Z" fill="black"/>
</svg>
